G04 #@! TF.GenerationSoftware,KiCad,Pcbnew,7.0.11+dfsg-1build4*
G04 #@! TF.CreationDate,2025-07-05T19:07:05+02:00*
G04 #@! TF.ProjectId,25487,32353438-372e-46b6-9963-61645f706362,rev?*
G04 #@! TF.SameCoordinates,Original*
G04 #@! TF.FileFunction,Legend,Bot*
G04 #@! TF.FilePolarity,Positive*
%FSLAX46Y46*%
G04 Gerber Fmt 4.6, Leading zero omitted, Abs format (unit mm)*
G04 Created by KiCad (PCBNEW 7.0.11+dfsg-1build4) date 2025-07-05 19:07:05*
%MOMM*%
%LPD*%
G01*
G04 APERTURE LIST*
G04 Aperture macros list*
%AMRoundRect*
0 Rectangle with rounded corners*
0 $1 Rounding radius*
0 $2 $3 $4 $5 $6 $7 $8 $9 X,Y pos of 4 corners*
0 Add a 4 corners polygon primitive as box body*
4,1,4,$2,$3,$4,$5,$6,$7,$8,$9,$2,$3,0*
0 Add four circle primitives for the rounded corners*
1,1,$1+$1,$2,$3*
1,1,$1+$1,$4,$5*
1,1,$1+$1,$6,$7*
1,1,$1+$1,$8,$9*
0 Add four rect primitives between the rounded corners*
20,1,$1+$1,$2,$3,$4,$5,0*
20,1,$1+$1,$4,$5,$6,$7,0*
20,1,$1+$1,$6,$7,$8,$9,0*
20,1,$1+$1,$8,$9,$2,$3,0*%
G04 Aperture macros list end*
%ADD10C,0.200000*%
%ADD11C,0.150000*%
%ADD12C,0.100000*%
%ADD13C,0.120000*%
%ADD14R,1.700000X1.700000*%
%ADD15O,1.700000X1.700000*%
%ADD16R,3.000000X3.000000*%
%ADD17C,3.000000*%
%ADD18RoundRect,0.243750X0.456250X-0.243750X0.456250X0.243750X-0.456250X0.243750X-0.456250X-0.243750X0*%
%ADD19RoundRect,0.250000X0.262500X0.450000X-0.262500X0.450000X-0.262500X-0.450000X0.262500X-0.450000X0*%
%ADD20RoundRect,0.250000X-0.250000X-0.475000X0.250000X-0.475000X0.250000X0.475000X-0.250000X0.475000X0*%
%ADD21RoundRect,0.250000X0.450000X-0.262500X0.450000X0.262500X-0.450000X0.262500X-0.450000X-0.262500X0*%
%ADD22RoundRect,0.375000X-0.625000X-0.375000X0.625000X-0.375000X0.625000X0.375000X-0.625000X0.375000X0*%
%ADD23RoundRect,0.500000X-0.500000X-1.400000X0.500000X-1.400000X0.500000X1.400000X-0.500000X1.400000X0*%
%ADD24RoundRect,0.250000X-0.450000X0.262500X-0.450000X-0.262500X0.450000X-0.262500X0.450000X0.262500X0*%
%ADD25RoundRect,0.250000X0.850000X0.350000X-0.850000X0.350000X-0.850000X-0.350000X0.850000X-0.350000X0*%
%ADD26RoundRect,0.249997X2.950003X2.650003X-2.950003X2.650003X-2.950003X-2.650003X2.950003X-2.650003X0*%
%ADD27RoundRect,0.250000X0.250000X0.475000X-0.250000X0.475000X-0.250000X-0.475000X0.250000X-0.475000X0*%
G04 APERTURE END LIST*
D10*
X116977945Y-116319600D02*
X116835088Y-116367219D01*
X116835088Y-116367219D02*
X116596993Y-116367219D01*
X116596993Y-116367219D02*
X116501755Y-116319600D01*
X116501755Y-116319600D02*
X116454136Y-116271980D01*
X116454136Y-116271980D02*
X116406517Y-116176742D01*
X116406517Y-116176742D02*
X116406517Y-116081504D01*
X116406517Y-116081504D02*
X116454136Y-115986266D01*
X116454136Y-115986266D02*
X116501755Y-115938647D01*
X116501755Y-115938647D02*
X116596993Y-115891028D01*
X116596993Y-115891028D02*
X116787469Y-115843409D01*
X116787469Y-115843409D02*
X116882707Y-115795790D01*
X116882707Y-115795790D02*
X116930326Y-115748171D01*
X116930326Y-115748171D02*
X116977945Y-115652933D01*
X116977945Y-115652933D02*
X116977945Y-115557695D01*
X116977945Y-115557695D02*
X116930326Y-115462457D01*
X116930326Y-115462457D02*
X116882707Y-115414838D01*
X116882707Y-115414838D02*
X116787469Y-115367219D01*
X116787469Y-115367219D02*
X116549374Y-115367219D01*
X116549374Y-115367219D02*
X116406517Y-115414838D01*
X115977945Y-116367219D02*
X115977945Y-115367219D01*
X115977945Y-115367219D02*
X115644612Y-116081504D01*
X115644612Y-116081504D02*
X115311279Y-115367219D01*
X115311279Y-115367219D02*
X115311279Y-116367219D01*
X114882707Y-116081504D02*
X114406517Y-116081504D01*
X114977945Y-116367219D02*
X114644612Y-115367219D01*
X114644612Y-115367219D02*
X114311279Y-116367219D01*
X113406517Y-116367219D02*
X113739850Y-115891028D01*
X113977945Y-116367219D02*
X113977945Y-115367219D01*
X113977945Y-115367219D02*
X113596993Y-115367219D01*
X113596993Y-115367219D02*
X113501755Y-115414838D01*
X113501755Y-115414838D02*
X113454136Y-115462457D01*
X113454136Y-115462457D02*
X113406517Y-115557695D01*
X113406517Y-115557695D02*
X113406517Y-115700552D01*
X113406517Y-115700552D02*
X113454136Y-115795790D01*
X113454136Y-115795790D02*
X113501755Y-115843409D01*
X113501755Y-115843409D02*
X113596993Y-115891028D01*
X113596993Y-115891028D02*
X113977945Y-115891028D01*
X113025564Y-116081504D02*
X112549374Y-116081504D01*
X113120802Y-116367219D02*
X112787469Y-115367219D01*
X112787469Y-115367219D02*
X112454136Y-116367219D01*
X111596993Y-115414838D02*
X111692231Y-115367219D01*
X111692231Y-115367219D02*
X111835088Y-115367219D01*
X111835088Y-115367219D02*
X111977945Y-115414838D01*
X111977945Y-115414838D02*
X112073183Y-115510076D01*
X112073183Y-115510076D02*
X112120802Y-115605314D01*
X112120802Y-115605314D02*
X112168421Y-115795790D01*
X112168421Y-115795790D02*
X112168421Y-115938647D01*
X112168421Y-115938647D02*
X112120802Y-116129123D01*
X112120802Y-116129123D02*
X112073183Y-116224361D01*
X112073183Y-116224361D02*
X111977945Y-116319600D01*
X111977945Y-116319600D02*
X111835088Y-116367219D01*
X111835088Y-116367219D02*
X111739850Y-116367219D01*
X111739850Y-116367219D02*
X111596993Y-116319600D01*
X111596993Y-116319600D02*
X111549374Y-116271980D01*
X111549374Y-116271980D02*
X111549374Y-115938647D01*
X111549374Y-115938647D02*
X111739850Y-115938647D01*
X111120802Y-116367219D02*
X111120802Y-115367219D01*
X111120802Y-115367219D02*
X110882707Y-115367219D01*
X110882707Y-115367219D02*
X110739850Y-115414838D01*
X110739850Y-115414838D02*
X110644612Y-115510076D01*
X110644612Y-115510076D02*
X110596993Y-115605314D01*
X110596993Y-115605314D02*
X110549374Y-115795790D01*
X110549374Y-115795790D02*
X110549374Y-115938647D01*
X110549374Y-115938647D02*
X110596993Y-116129123D01*
X110596993Y-116129123D02*
X110644612Y-116224361D01*
X110644612Y-116224361D02*
X110739850Y-116319600D01*
X110739850Y-116319600D02*
X110882707Y-116367219D01*
X110882707Y-116367219D02*
X111120802Y-116367219D01*
X121530326Y-116367219D02*
X121530326Y-115700552D01*
X121530326Y-115891028D02*
X121482707Y-115795790D01*
X121482707Y-115795790D02*
X121435088Y-115748171D01*
X121435088Y-115748171D02*
X121339850Y-115700552D01*
X121339850Y-115700552D02*
X121244612Y-115700552D01*
X120530326Y-116319600D02*
X120625564Y-116367219D01*
X120625564Y-116367219D02*
X120816040Y-116367219D01*
X120816040Y-116367219D02*
X120911278Y-116319600D01*
X120911278Y-116319600D02*
X120958897Y-116224361D01*
X120958897Y-116224361D02*
X120958897Y-115843409D01*
X120958897Y-115843409D02*
X120911278Y-115748171D01*
X120911278Y-115748171D02*
X120816040Y-115700552D01*
X120816040Y-115700552D02*
X120625564Y-115700552D01*
X120625564Y-115700552D02*
X120530326Y-115748171D01*
X120530326Y-115748171D02*
X120482707Y-115843409D01*
X120482707Y-115843409D02*
X120482707Y-115938647D01*
X120482707Y-115938647D02*
X120958897Y-116033885D01*
X120149373Y-115700552D02*
X119911278Y-116367219D01*
X119911278Y-116367219D02*
X119673183Y-115700552D01*
X118768421Y-116367219D02*
X119339849Y-116367219D01*
X119054135Y-116367219D02*
X119054135Y-115367219D01*
X119054135Y-115367219D02*
X119149373Y-115510076D01*
X119149373Y-115510076D02*
X119244611Y-115605314D01*
X119244611Y-115605314D02*
X119339849Y-115652933D01*
X128567219Y-105060149D02*
X128567219Y-105250625D01*
X128567219Y-105250625D02*
X128614838Y-105345863D01*
X128614838Y-105345863D02*
X128710076Y-105441101D01*
X128710076Y-105441101D02*
X128900552Y-105488720D01*
X128900552Y-105488720D02*
X129233885Y-105488720D01*
X129233885Y-105488720D02*
X129424361Y-105441101D01*
X129424361Y-105441101D02*
X129519600Y-105345863D01*
X129519600Y-105345863D02*
X129567219Y-105250625D01*
X129567219Y-105250625D02*
X129567219Y-105060149D01*
X129567219Y-105060149D02*
X129519600Y-104964911D01*
X129519600Y-104964911D02*
X129424361Y-104869673D01*
X129424361Y-104869673D02*
X129233885Y-104822054D01*
X129233885Y-104822054D02*
X128900552Y-104822054D01*
X128900552Y-104822054D02*
X128710076Y-104869673D01*
X128710076Y-104869673D02*
X128614838Y-104964911D01*
X128614838Y-104964911D02*
X128567219Y-105060149D01*
X128567219Y-105917292D02*
X129376742Y-105917292D01*
X129376742Y-105917292D02*
X129471980Y-105964911D01*
X129471980Y-105964911D02*
X129519600Y-106012530D01*
X129519600Y-106012530D02*
X129567219Y-106107768D01*
X129567219Y-106107768D02*
X129567219Y-106298244D01*
X129567219Y-106298244D02*
X129519600Y-106393482D01*
X129519600Y-106393482D02*
X129471980Y-106441101D01*
X129471980Y-106441101D02*
X129376742Y-106488720D01*
X129376742Y-106488720D02*
X128567219Y-106488720D01*
X128567219Y-106822054D02*
X128567219Y-107393482D01*
X129567219Y-107107768D02*
X128567219Y-107107768D01*
X100732780Y-105530326D02*
X101732780Y-105530326D01*
X100732780Y-105054136D02*
X101732780Y-105054136D01*
X101732780Y-105054136D02*
X100732780Y-104482708D01*
X100732780Y-104482708D02*
X101732780Y-104482708D01*
D11*
X107654819Y-102761905D02*
X106654819Y-102761905D01*
X106654819Y-102761905D02*
X106654819Y-103000000D01*
X106654819Y-103000000D02*
X106702438Y-103142857D01*
X106702438Y-103142857D02*
X106797676Y-103238095D01*
X106797676Y-103238095D02*
X106892914Y-103285714D01*
X106892914Y-103285714D02*
X107083390Y-103333333D01*
X107083390Y-103333333D02*
X107226247Y-103333333D01*
X107226247Y-103333333D02*
X107416723Y-103285714D01*
X107416723Y-103285714D02*
X107511961Y-103238095D01*
X107511961Y-103238095D02*
X107607200Y-103142857D01*
X107607200Y-103142857D02*
X107654819Y-103000000D01*
X107654819Y-103000000D02*
X107654819Y-102761905D01*
X106654819Y-104238095D02*
X106654819Y-103761905D01*
X106654819Y-103761905D02*
X107131009Y-103714286D01*
X107131009Y-103714286D02*
X107083390Y-103761905D01*
X107083390Y-103761905D02*
X107035771Y-103857143D01*
X107035771Y-103857143D02*
X107035771Y-104095238D01*
X107035771Y-104095238D02*
X107083390Y-104190476D01*
X107083390Y-104190476D02*
X107131009Y-104238095D01*
X107131009Y-104238095D02*
X107226247Y-104285714D01*
X107226247Y-104285714D02*
X107464342Y-104285714D01*
X107464342Y-104285714D02*
X107559580Y-104238095D01*
X107559580Y-104238095D02*
X107607200Y-104190476D01*
X107607200Y-104190476D02*
X107654819Y-104095238D01*
X107654819Y-104095238D02*
X107654819Y-103857143D01*
X107654819Y-103857143D02*
X107607200Y-103761905D01*
X107607200Y-103761905D02*
X107559580Y-103714286D01*
X129366666Y-111654819D02*
X129699999Y-111178628D01*
X129938094Y-111654819D02*
X129938094Y-110654819D01*
X129938094Y-110654819D02*
X129557142Y-110654819D01*
X129557142Y-110654819D02*
X129461904Y-110702438D01*
X129461904Y-110702438D02*
X129414285Y-110750057D01*
X129414285Y-110750057D02*
X129366666Y-110845295D01*
X129366666Y-110845295D02*
X129366666Y-110988152D01*
X129366666Y-110988152D02*
X129414285Y-111083390D01*
X129414285Y-111083390D02*
X129461904Y-111131009D01*
X129461904Y-111131009D02*
X129557142Y-111178628D01*
X129557142Y-111178628D02*
X129938094Y-111178628D01*
X128509523Y-110654819D02*
X128699999Y-110654819D01*
X128699999Y-110654819D02*
X128795237Y-110702438D01*
X128795237Y-110702438D02*
X128842856Y-110750057D01*
X128842856Y-110750057D02*
X128938094Y-110892914D01*
X128938094Y-110892914D02*
X128985713Y-111083390D01*
X128985713Y-111083390D02*
X128985713Y-111464342D01*
X128985713Y-111464342D02*
X128938094Y-111559580D01*
X128938094Y-111559580D02*
X128890475Y-111607200D01*
X128890475Y-111607200D02*
X128795237Y-111654819D01*
X128795237Y-111654819D02*
X128604761Y-111654819D01*
X128604761Y-111654819D02*
X128509523Y-111607200D01*
X128509523Y-111607200D02*
X128461904Y-111559580D01*
X128461904Y-111559580D02*
X128414285Y-111464342D01*
X128414285Y-111464342D02*
X128414285Y-111226247D01*
X128414285Y-111226247D02*
X128461904Y-111131009D01*
X128461904Y-111131009D02*
X128509523Y-111083390D01*
X128509523Y-111083390D02*
X128604761Y-111035771D01*
X128604761Y-111035771D02*
X128795237Y-111035771D01*
X128795237Y-111035771D02*
X128890475Y-111083390D01*
X128890475Y-111083390D02*
X128938094Y-111131009D01*
X128938094Y-111131009D02*
X128985713Y-111226247D01*
X129366666Y-113759580D02*
X129414285Y-113807200D01*
X129414285Y-113807200D02*
X129557142Y-113854819D01*
X129557142Y-113854819D02*
X129652380Y-113854819D01*
X129652380Y-113854819D02*
X129795237Y-113807200D01*
X129795237Y-113807200D02*
X129890475Y-113711961D01*
X129890475Y-113711961D02*
X129938094Y-113616723D01*
X129938094Y-113616723D02*
X129985713Y-113426247D01*
X129985713Y-113426247D02*
X129985713Y-113283390D01*
X129985713Y-113283390D02*
X129938094Y-113092914D01*
X129938094Y-113092914D02*
X129890475Y-112997676D01*
X129890475Y-112997676D02*
X129795237Y-112902438D01*
X129795237Y-112902438D02*
X129652380Y-112854819D01*
X129652380Y-112854819D02*
X129557142Y-112854819D01*
X129557142Y-112854819D02*
X129414285Y-112902438D01*
X129414285Y-112902438D02*
X129366666Y-112950057D01*
X129033332Y-112854819D02*
X128414285Y-112854819D01*
X128414285Y-112854819D02*
X128747618Y-113235771D01*
X128747618Y-113235771D02*
X128604761Y-113235771D01*
X128604761Y-113235771D02*
X128509523Y-113283390D01*
X128509523Y-113283390D02*
X128461904Y-113331009D01*
X128461904Y-113331009D02*
X128414285Y-113426247D01*
X128414285Y-113426247D02*
X128414285Y-113664342D01*
X128414285Y-113664342D02*
X128461904Y-113759580D01*
X128461904Y-113759580D02*
X128509523Y-113807200D01*
X128509523Y-113807200D02*
X128604761Y-113854819D01*
X128604761Y-113854819D02*
X128890475Y-113854819D01*
X128890475Y-113854819D02*
X128985713Y-113807200D01*
X128985713Y-113807200D02*
X129033332Y-113759580D01*
X129854819Y-116857142D02*
X129378628Y-116523809D01*
X129854819Y-116285714D02*
X128854819Y-116285714D01*
X128854819Y-116285714D02*
X128854819Y-116666666D01*
X128854819Y-116666666D02*
X128902438Y-116761904D01*
X128902438Y-116761904D02*
X128950057Y-116809523D01*
X128950057Y-116809523D02*
X129045295Y-116857142D01*
X129045295Y-116857142D02*
X129188152Y-116857142D01*
X129188152Y-116857142D02*
X129283390Y-116809523D01*
X129283390Y-116809523D02*
X129331009Y-116761904D01*
X129331009Y-116761904D02*
X129378628Y-116666666D01*
X129378628Y-116666666D02*
X129378628Y-116285714D01*
X129854819Y-117809523D02*
X129854819Y-117238095D01*
X129854819Y-117523809D02*
X128854819Y-117523809D01*
X128854819Y-117523809D02*
X128997676Y-117428571D01*
X128997676Y-117428571D02*
X129092914Y-117333333D01*
X129092914Y-117333333D02*
X129140533Y-117238095D01*
X128854819Y-118428571D02*
X128854819Y-118523809D01*
X128854819Y-118523809D02*
X128902438Y-118619047D01*
X128902438Y-118619047D02*
X128950057Y-118666666D01*
X128950057Y-118666666D02*
X129045295Y-118714285D01*
X129045295Y-118714285D02*
X129235771Y-118761904D01*
X129235771Y-118761904D02*
X129473866Y-118761904D01*
X129473866Y-118761904D02*
X129664342Y-118714285D01*
X129664342Y-118714285D02*
X129759580Y-118666666D01*
X129759580Y-118666666D02*
X129807200Y-118619047D01*
X129807200Y-118619047D02*
X129854819Y-118523809D01*
X129854819Y-118523809D02*
X129854819Y-118428571D01*
X129854819Y-118428571D02*
X129807200Y-118333333D01*
X129807200Y-118333333D02*
X129759580Y-118285714D01*
X129759580Y-118285714D02*
X129664342Y-118238095D01*
X129664342Y-118238095D02*
X129473866Y-118190476D01*
X129473866Y-118190476D02*
X129235771Y-118190476D01*
X129235771Y-118190476D02*
X129045295Y-118238095D01*
X129045295Y-118238095D02*
X128950057Y-118285714D01*
X128950057Y-118285714D02*
X128902438Y-118333333D01*
X128902438Y-118333333D02*
X128854819Y-118428571D01*
X108861904Y-117954819D02*
X108861904Y-118764342D01*
X108861904Y-118764342D02*
X108814285Y-118859580D01*
X108814285Y-118859580D02*
X108766666Y-118907200D01*
X108766666Y-118907200D02*
X108671428Y-118954819D01*
X108671428Y-118954819D02*
X108480952Y-118954819D01*
X108480952Y-118954819D02*
X108385714Y-118907200D01*
X108385714Y-118907200D02*
X108338095Y-118859580D01*
X108338095Y-118859580D02*
X108290476Y-118764342D01*
X108290476Y-118764342D02*
X108290476Y-117954819D01*
X107861904Y-118050057D02*
X107814285Y-118002438D01*
X107814285Y-118002438D02*
X107719047Y-117954819D01*
X107719047Y-117954819D02*
X107480952Y-117954819D01*
X107480952Y-117954819D02*
X107385714Y-118002438D01*
X107385714Y-118002438D02*
X107338095Y-118050057D01*
X107338095Y-118050057D02*
X107290476Y-118145295D01*
X107290476Y-118145295D02*
X107290476Y-118240533D01*
X107290476Y-118240533D02*
X107338095Y-118383390D01*
X107338095Y-118383390D02*
X107909523Y-118954819D01*
X107909523Y-118954819D02*
X107290476Y-118954819D01*
X124154819Y-116957142D02*
X123678628Y-116623809D01*
X124154819Y-116385714D02*
X123154819Y-116385714D01*
X123154819Y-116385714D02*
X123154819Y-116766666D01*
X123154819Y-116766666D02*
X123202438Y-116861904D01*
X123202438Y-116861904D02*
X123250057Y-116909523D01*
X123250057Y-116909523D02*
X123345295Y-116957142D01*
X123345295Y-116957142D02*
X123488152Y-116957142D01*
X123488152Y-116957142D02*
X123583390Y-116909523D01*
X123583390Y-116909523D02*
X123631009Y-116861904D01*
X123631009Y-116861904D02*
X123678628Y-116766666D01*
X123678628Y-116766666D02*
X123678628Y-116385714D01*
X124154819Y-117909523D02*
X124154819Y-117338095D01*
X124154819Y-117623809D02*
X123154819Y-117623809D01*
X123154819Y-117623809D02*
X123297676Y-117528571D01*
X123297676Y-117528571D02*
X123392914Y-117433333D01*
X123392914Y-117433333D02*
X123440533Y-117338095D01*
X124154819Y-118861904D02*
X124154819Y-118290476D01*
X124154819Y-118576190D02*
X123154819Y-118576190D01*
X123154819Y-118576190D02*
X123297676Y-118480952D01*
X123297676Y-118480952D02*
X123392914Y-118385714D01*
X123392914Y-118385714D02*
X123440533Y-118290476D01*
X107654819Y-106557142D02*
X107178628Y-106223809D01*
X107654819Y-105985714D02*
X106654819Y-105985714D01*
X106654819Y-105985714D02*
X106654819Y-106366666D01*
X106654819Y-106366666D02*
X106702438Y-106461904D01*
X106702438Y-106461904D02*
X106750057Y-106509523D01*
X106750057Y-106509523D02*
X106845295Y-106557142D01*
X106845295Y-106557142D02*
X106988152Y-106557142D01*
X106988152Y-106557142D02*
X107083390Y-106509523D01*
X107083390Y-106509523D02*
X107131009Y-106461904D01*
X107131009Y-106461904D02*
X107178628Y-106366666D01*
X107178628Y-106366666D02*
X107178628Y-105985714D01*
X107654819Y-107509523D02*
X107654819Y-106938095D01*
X107654819Y-107223809D02*
X106654819Y-107223809D01*
X106654819Y-107223809D02*
X106797676Y-107128571D01*
X106797676Y-107128571D02*
X106892914Y-107033333D01*
X106892914Y-107033333D02*
X106940533Y-106938095D01*
X106750057Y-107890476D02*
X106702438Y-107938095D01*
X106702438Y-107938095D02*
X106654819Y-108033333D01*
X106654819Y-108033333D02*
X106654819Y-108271428D01*
X106654819Y-108271428D02*
X106702438Y-108366666D01*
X106702438Y-108366666D02*
X106750057Y-108414285D01*
X106750057Y-108414285D02*
X106845295Y-108461904D01*
X106845295Y-108461904D02*
X106940533Y-108461904D01*
X106940533Y-108461904D02*
X107083390Y-108414285D01*
X107083390Y-108414285D02*
X107654819Y-107842857D01*
X107654819Y-107842857D02*
X107654819Y-108461904D01*
X111950057Y-103704761D02*
X111902438Y-103609523D01*
X111902438Y-103609523D02*
X111807200Y-103514285D01*
X111807200Y-103514285D02*
X111664342Y-103371428D01*
X111664342Y-103371428D02*
X111616723Y-103276190D01*
X111616723Y-103276190D02*
X111616723Y-103180952D01*
X111854819Y-103228571D02*
X111807200Y-103133333D01*
X111807200Y-103133333D02*
X111711961Y-103038095D01*
X111711961Y-103038095D02*
X111521485Y-102990476D01*
X111521485Y-102990476D02*
X111188152Y-102990476D01*
X111188152Y-102990476D02*
X110997676Y-103038095D01*
X110997676Y-103038095D02*
X110902438Y-103133333D01*
X110902438Y-103133333D02*
X110854819Y-103228571D01*
X110854819Y-103228571D02*
X110854819Y-103419047D01*
X110854819Y-103419047D02*
X110902438Y-103514285D01*
X110902438Y-103514285D02*
X110997676Y-103609523D01*
X110997676Y-103609523D02*
X111188152Y-103657142D01*
X111188152Y-103657142D02*
X111521485Y-103657142D01*
X111521485Y-103657142D02*
X111711961Y-103609523D01*
X111711961Y-103609523D02*
X111807200Y-103514285D01*
X111807200Y-103514285D02*
X111854819Y-103419047D01*
X111854819Y-103419047D02*
X111854819Y-103228571D01*
X110950057Y-104038095D02*
X110902438Y-104085714D01*
X110902438Y-104085714D02*
X110854819Y-104180952D01*
X110854819Y-104180952D02*
X110854819Y-104419047D01*
X110854819Y-104419047D02*
X110902438Y-104514285D01*
X110902438Y-104514285D02*
X110950057Y-104561904D01*
X110950057Y-104561904D02*
X111045295Y-104609523D01*
X111045295Y-104609523D02*
X111140533Y-104609523D01*
X111140533Y-104609523D02*
X111283390Y-104561904D01*
X111283390Y-104561904D02*
X111854819Y-103990476D01*
X111854819Y-103990476D02*
X111854819Y-104609523D01*
X111950057Y-108504761D02*
X111902438Y-108409523D01*
X111902438Y-108409523D02*
X111807200Y-108314285D01*
X111807200Y-108314285D02*
X111664342Y-108171428D01*
X111664342Y-108171428D02*
X111616723Y-108076190D01*
X111616723Y-108076190D02*
X111616723Y-107980952D01*
X111854819Y-108028571D02*
X111807200Y-107933333D01*
X111807200Y-107933333D02*
X111711961Y-107838095D01*
X111711961Y-107838095D02*
X111521485Y-107790476D01*
X111521485Y-107790476D02*
X111188152Y-107790476D01*
X111188152Y-107790476D02*
X110997676Y-107838095D01*
X110997676Y-107838095D02*
X110902438Y-107933333D01*
X110902438Y-107933333D02*
X110854819Y-108028571D01*
X110854819Y-108028571D02*
X110854819Y-108219047D01*
X110854819Y-108219047D02*
X110902438Y-108314285D01*
X110902438Y-108314285D02*
X110997676Y-108409523D01*
X110997676Y-108409523D02*
X111188152Y-108457142D01*
X111188152Y-108457142D02*
X111521485Y-108457142D01*
X111521485Y-108457142D02*
X111711961Y-108409523D01*
X111711961Y-108409523D02*
X111807200Y-108314285D01*
X111807200Y-108314285D02*
X111854819Y-108219047D01*
X111854819Y-108219047D02*
X111854819Y-108028571D01*
X111854819Y-109409523D02*
X111854819Y-108838095D01*
X111854819Y-109123809D02*
X110854819Y-109123809D01*
X110854819Y-109123809D02*
X110997676Y-109028571D01*
X110997676Y-109028571D02*
X111092914Y-108933333D01*
X111092914Y-108933333D02*
X111140533Y-108838095D01*
X109966666Y-112559580D02*
X110014285Y-112607200D01*
X110014285Y-112607200D02*
X110157142Y-112654819D01*
X110157142Y-112654819D02*
X110252380Y-112654819D01*
X110252380Y-112654819D02*
X110395237Y-112607200D01*
X110395237Y-112607200D02*
X110490475Y-112511961D01*
X110490475Y-112511961D02*
X110538094Y-112416723D01*
X110538094Y-112416723D02*
X110585713Y-112226247D01*
X110585713Y-112226247D02*
X110585713Y-112083390D01*
X110585713Y-112083390D02*
X110538094Y-111892914D01*
X110538094Y-111892914D02*
X110490475Y-111797676D01*
X110490475Y-111797676D02*
X110395237Y-111702438D01*
X110395237Y-111702438D02*
X110252380Y-111654819D01*
X110252380Y-111654819D02*
X110157142Y-111654819D01*
X110157142Y-111654819D02*
X110014285Y-111702438D01*
X110014285Y-111702438D02*
X109966666Y-111750057D01*
X109585713Y-111750057D02*
X109538094Y-111702438D01*
X109538094Y-111702438D02*
X109442856Y-111654819D01*
X109442856Y-111654819D02*
X109204761Y-111654819D01*
X109204761Y-111654819D02*
X109109523Y-111702438D01*
X109109523Y-111702438D02*
X109061904Y-111750057D01*
X109061904Y-111750057D02*
X109014285Y-111845295D01*
X109014285Y-111845295D02*
X109014285Y-111940533D01*
X109014285Y-111940533D02*
X109061904Y-112083390D01*
X109061904Y-112083390D02*
X109633332Y-112654819D01*
X109633332Y-112654819D02*
X109014285Y-112654819D01*
X104766666Y-110859580D02*
X104814285Y-110907200D01*
X104814285Y-110907200D02*
X104957142Y-110954819D01*
X104957142Y-110954819D02*
X105052380Y-110954819D01*
X105052380Y-110954819D02*
X105195237Y-110907200D01*
X105195237Y-110907200D02*
X105290475Y-110811961D01*
X105290475Y-110811961D02*
X105338094Y-110716723D01*
X105338094Y-110716723D02*
X105385713Y-110526247D01*
X105385713Y-110526247D02*
X105385713Y-110383390D01*
X105385713Y-110383390D02*
X105338094Y-110192914D01*
X105338094Y-110192914D02*
X105290475Y-110097676D01*
X105290475Y-110097676D02*
X105195237Y-110002438D01*
X105195237Y-110002438D02*
X105052380Y-109954819D01*
X105052380Y-109954819D02*
X104957142Y-109954819D01*
X104957142Y-109954819D02*
X104814285Y-110002438D01*
X104814285Y-110002438D02*
X104766666Y-110050057D01*
X103814285Y-110954819D02*
X104385713Y-110954819D01*
X104099999Y-110954819D02*
X104099999Y-109954819D01*
X104099999Y-109954819D02*
X104195237Y-110097676D01*
X104195237Y-110097676D02*
X104290475Y-110192914D01*
X104290475Y-110192914D02*
X104385713Y-110240533D01*
D12*
X110749780Y-117146466D02*
X110505155Y-117146466D01*
X110644680Y-117250720D02*
X110690967Y-117205733D01*
X110505155Y-117146466D02*
X110644680Y-117250720D01*
G36*
X112447838Y-117413092D02*
G01*
X111726054Y-118134912D01*
X111656467Y-118204484D01*
X111566943Y-118293926D01*
X111481301Y-118379425D01*
X111400273Y-118460249D01*
X111324596Y-118535667D01*
X111255005Y-118604950D01*
X111192234Y-118667365D01*
X111137019Y-118722183D01*
X111090094Y-118768672D01*
X111052195Y-118806103D01*
X111024056Y-118833743D01*
X111006413Y-118850864D01*
X111000000Y-118856733D01*
X110996244Y-118853387D01*
X110981306Y-118838976D01*
X110955691Y-118813865D01*
X110920135Y-118778782D01*
X110875373Y-118734460D01*
X110822138Y-118681630D01*
X110761168Y-118621021D01*
X110693196Y-118553364D01*
X110618957Y-118479391D01*
X110539187Y-118399833D01*
X110454620Y-118315419D01*
X110365992Y-118226881D01*
X110274037Y-118134949D01*
X109552461Y-117413283D01*
X109840137Y-117413283D01*
X110417975Y-117991074D01*
X110452010Y-118025099D01*
X110532852Y-118105858D01*
X110609959Y-118182802D01*
X110682508Y-118255115D01*
X110749675Y-118321980D01*
X110810638Y-118382579D01*
X110864574Y-118436097D01*
X110910660Y-118481715D01*
X110948073Y-118518619D01*
X110975991Y-118545989D01*
X110993589Y-118563011D01*
X111000047Y-118568866D01*
X111001298Y-118567865D01*
X111012430Y-118557324D01*
X111034364Y-118535951D01*
X111066279Y-118504564D01*
X111107351Y-118463978D01*
X111156757Y-118415012D01*
X111213675Y-118358482D01*
X111277282Y-118295204D01*
X111346755Y-118225996D01*
X111421272Y-118151674D01*
X111500009Y-118073055D01*
X111582144Y-117990957D01*
X112160007Y-117413047D01*
X112022294Y-117275523D01*
X111884580Y-117137999D01*
X111465636Y-117137999D01*
X111046692Y-117138000D01*
X111038221Y-117146466D01*
X110837079Y-117347486D01*
X110627467Y-117556972D01*
X110417855Y-117347486D01*
X110216714Y-117146466D01*
X110505155Y-117146466D01*
X110563967Y-117205733D01*
X110580409Y-117222116D01*
X110603278Y-117244210D01*
X110619892Y-117259369D01*
X110627467Y-117264999D01*
X110631063Y-117262682D01*
X110644680Y-117250720D01*
X110665575Y-117230872D01*
X110690967Y-117205733D01*
X110749780Y-117146466D01*
X110627467Y-117146466D01*
X110505155Y-117146466D01*
X110216714Y-117146466D01*
X110208243Y-117138000D01*
X110161642Y-117138000D01*
X110115041Y-117138000D01*
X109977589Y-117275641D01*
X109840137Y-117413283D01*
X109552461Y-117413283D01*
X109552344Y-117413166D01*
X109791143Y-117173983D01*
X110029943Y-116934799D01*
X110999633Y-116934800D01*
X111969324Y-116934800D01*
X112208581Y-117173946D01*
X112447793Y-117413047D01*
X112447838Y-117413092D01*
G37*
D13*
X107940000Y-105185000D02*
X107940000Y-102500000D01*
X109860000Y-105185000D02*
X107940000Y-105185000D01*
X109860000Y-102500000D02*
X109860000Y-105185000D01*
X126627064Y-111935000D02*
X126172936Y-111935000D01*
X126627064Y-110465000D02*
X126172936Y-110465000D01*
X126138748Y-112465000D02*
X126661252Y-112465000D01*
X126138748Y-113935000D02*
X126661252Y-113935000D01*
X127015000Y-117727064D02*
X127015000Y-117272936D01*
X128485000Y-117727064D02*
X128485000Y-117272936D01*
X102900000Y-111840000D02*
X106660000Y-111840000D01*
X102900000Y-118660000D02*
X106660000Y-118660000D01*
X106660000Y-111840000D02*
X106660000Y-113100000D01*
X106660000Y-118660000D02*
X106660000Y-117400000D01*
X101860000Y-118890000D02*
X101380000Y-118890000D01*
X101620000Y-118560000D01*
X101860000Y-118890000D01*
G36*
X101860000Y-118890000D02*
G01*
X101380000Y-118890000D01*
X101620000Y-118560000D01*
X101860000Y-118890000D01*
G37*
X124765000Y-117727064D02*
X124765000Y-117272936D01*
X126235000Y-117727064D02*
X126235000Y-117272936D01*
X109635000Y-107022936D02*
X109635000Y-107477064D01*
X108165000Y-107022936D02*
X108165000Y-107477064D01*
X119970000Y-107202500D02*
X119970000Y-106932500D01*
X119970000Y-100302500D02*
X119970000Y-100572500D01*
X113550000Y-107202500D02*
X119970000Y-107202500D01*
X113550000Y-100302500D02*
X119970000Y-100302500D01*
X121390000Y-100612500D02*
X121150000Y-100282500D01*
X121630000Y-100282500D01*
X121390000Y-100612500D01*
G36*
X121390000Y-100612500D02*
G01*
X121150000Y-100282500D01*
X121630000Y-100282500D01*
X121390000Y-100612500D01*
G37*
X120020000Y-114730000D02*
X120020000Y-114460000D01*
X120020000Y-107830000D02*
X120020000Y-108100000D01*
X113600000Y-114730000D02*
X120020000Y-114730000D01*
X113600000Y-107830000D02*
X120020000Y-107830000D01*
X121440000Y-108140000D02*
X121200000Y-107810000D01*
X121680000Y-107810000D01*
X121440000Y-108140000D01*
G36*
X121440000Y-108140000D02*
G01*
X121200000Y-107810000D01*
X121680000Y-107810000D01*
X121440000Y-108140000D01*
G37*
X109488748Y-109765000D02*
X110011252Y-109765000D01*
X109488748Y-111235000D02*
X110011252Y-111235000D01*
X102361252Y-111335000D02*
X101838748Y-111335000D01*
X102361252Y-109865000D02*
X101838748Y-109865000D01*
%LPC*%
D14*
X121300000Y-118000000D03*
D15*
X118760000Y-118000000D03*
X116220000Y-118000000D03*
X113680000Y-118000000D03*
D16*
X104000000Y-107830000D03*
D17*
X104000000Y-102750000D03*
D16*
X126500000Y-102710000D03*
D17*
X126500000Y-107790000D03*
D18*
X108900000Y-104437500D03*
X108900000Y-102562500D03*
D19*
X127312500Y-111200000D03*
X125487500Y-111200000D03*
D20*
X125450000Y-113200000D03*
X127350000Y-113200000D03*
D21*
X127750000Y-118412500D03*
X127750000Y-116587500D03*
D22*
X101600000Y-117550000D03*
X101600000Y-115250000D03*
D23*
X107900000Y-115250000D03*
D22*
X101600000Y-112950000D03*
D21*
X125500000Y-118412500D03*
X125500000Y-116587500D03*
D24*
X108900000Y-106337500D03*
X108900000Y-108162500D03*
D25*
X121700000Y-101472500D03*
D26*
X115400000Y-103752500D03*
D25*
X121700000Y-106032500D03*
X121750000Y-109000000D03*
D26*
X115450000Y-111280000D03*
D25*
X121750000Y-113560000D03*
D20*
X108800000Y-110500000D03*
X110700000Y-110500000D03*
D27*
X103050000Y-110600000D03*
X101150000Y-110600000D03*
%LPD*%
M02*
