M48
; DRILL file {KiCad 7.0.11+dfsg-1build4} date Sat 05 Jul 2025 07:07:16 PM CEST
; FORMAT={-:-/ absolute / metric / decimal}
; #@! TF.CreationDate,2025-07-05T19:07:16+02:00
; #@! TF.GenerationSoftware,Kicad,Pcbnew,7.0.11+dfsg-1build4
; #@! TF.FileFunction,Plated,1,2,PTH
FMAT,2
METRIC
; #@! TA.AperFunction,Plated,PTH,ViaDrill
T1C0.300
; #@! TA.AperFunction,Plated,PTH,ComponentDrill
T2C1.000
; #@! TA.AperFunction,Plated,PTH,ComponentDrill
T3C1.520
%
G90
G05
T1
X101.75Y-116.75
X103.7Y-114.2
X105.615Y-112.412
X106.2Y-114.0
X106.5Y-110.1
X106.5Y-110.8
X107.2Y-110.1
X107.2Y-110.8
X107.9Y-116.8
X108.1Y-119.15
X109.6Y-114.0
X110.25Y-101.75
X110.511Y-114.203
X110.695Y-112.412
X111.5Y-101.75
X111.5Y-108.0
X111.75Y-112.25
X113.2Y-108.2
X113.2Y-108.8
X113.8Y-108.2
X113.8Y-108.8
X116.7Y-101.25
X116.7Y-102.0
X116.7Y-102.75
X116.7Y-103.5
X120.0Y-112.6
X120.25Y-104.575
X120.487Y-107.737
X121.45Y-110.1
X122.204Y-114.66
X122.9Y-104.575
X123.6Y-112.5
X125.5Y-116.587
X127.75Y-114.5
X127.75Y-115.25
X128.5Y-114.5
X128.5Y-115.25
X128.75Y-103.0
X128.75Y-103.75
X129.5Y-103.0
X129.5Y-103.75
T2
X113.68Y-118.0
X116.22Y-118.0
X118.76Y-118.0
X121.3Y-118.0
T3
X104.0Y-102.75
X104.0Y-107.83
X126.5Y-102.71
X126.5Y-107.79
M30
