G04 #@! TF.GenerationSoftware,KiCad,Pcbnew,7.0.11+dfsg-1build4*
G04 #@! TF.CreationDate,2025-07-05T19:07:05+02:00*
G04 #@! TF.ProjectId,25487,32353438-372e-46b6-9963-61645f706362,rev?*
G04 #@! TF.SameCoordinates,Original*
G04 #@! TF.FileFunction,Paste,Top*
G04 #@! TF.FilePolarity,Positive*
%FSLAX46Y46*%
G04 Gerber Fmt 4.6, Leading zero omitted, Abs format (unit mm)*
G04 Created by KiCad (PCBNEW 7.0.11+dfsg-1build4) date 2025-07-05 19:07:05*
%MOMM*%
%LPD*%
G01*
G04 APERTURE LIST*
G04 Aperture macros list*
%AMRoundRect*
0 Rectangle with rounded corners*
0 $1 Rounding radius*
0 $2 $3 $4 $5 $6 $7 $8 $9 X,Y pos of 4 corners*
0 Add a 4 corners polygon primitive as box body*
4,1,4,$2,$3,$4,$5,$6,$7,$8,$9,$2,$3,0*
0 Add four circle primitives for the rounded corners*
1,1,$1+$1,$2,$3*
1,1,$1+$1,$4,$5*
1,1,$1+$1,$6,$7*
1,1,$1+$1,$8,$9*
0 Add four rect primitives between the rounded corners*
20,1,$1+$1,$2,$3,$4,$5,0*
20,1,$1+$1,$4,$5,$6,$7,0*
20,1,$1+$1,$6,$7,$8,$9,0*
20,1,$1+$1,$8,$9,$2,$3,0*%
G04 Aperture macros list end*
%ADD10RoundRect,0.250000X-0.750000X0.400000X-0.750000X-0.400000X0.750000X-0.400000X0.750000X0.400000X0*%
%ADD11RoundRect,0.250000X-0.750000X0.750000X-0.750000X-0.750000X0.750000X-0.750000X0.750000X0.750000X0*%
%ADD12RoundRect,0.250000X-0.450000X0.262500X-0.450000X-0.262500X0.450000X-0.262500X0.450000X0.262500X0*%
%ADD13RoundRect,0.150000X0.150000X-0.512500X0.150000X0.512500X-0.150000X0.512500X-0.150000X-0.512500X0*%
%ADD14RoundRect,0.250000X0.450000X-0.262500X0.450000X0.262500X-0.450000X0.262500X-0.450000X-0.262500X0*%
%ADD15RoundRect,0.112500X0.112500X-0.187500X0.112500X0.187500X-0.112500X0.187500X-0.112500X-0.187500X0*%
%ADD16RoundRect,0.112500X-0.112500X0.187500X-0.112500X-0.187500X0.112500X-0.187500X0.112500X0.187500X0*%
%ADD17RoundRect,0.250000X0.400000X0.750000X-0.400000X0.750000X-0.400000X-0.750000X0.400000X-0.750000X0*%
%ADD18RoundRect,0.250000X0.750000X0.750000X-0.750000X0.750000X-0.750000X-0.750000X0.750000X-0.750000X0*%
%ADD19RoundRect,0.250000X-0.312500X-0.625000X0.312500X-0.625000X0.312500X0.625000X-0.312500X0.625000X0*%
%ADD20RoundRect,0.162500X0.162500X-0.750000X0.162500X0.750000X-0.162500X0.750000X-0.162500X-0.750000X0*%
%ADD21RoundRect,0.250000X-0.262500X-0.450000X0.262500X-0.450000X0.262500X0.450000X-0.262500X0.450000X0*%
G04 APERTURE END LIST*
D10*
X122250000Y-112100000D03*
D11*
X118250000Y-113250000D03*
D10*
X122250000Y-114400000D03*
D12*
X115300000Y-107837500D03*
X115300000Y-109662500D03*
D13*
X119550000Y-109737500D03*
X121450000Y-109737500D03*
X120500000Y-107462500D03*
D14*
X113300000Y-113412500D03*
X113300000Y-111587500D03*
D13*
X117750000Y-103537500D03*
X119650000Y-103537500D03*
X118700000Y-101262500D03*
D15*
X111500000Y-108800000D03*
X111500000Y-106700000D03*
D16*
X111200000Y-101350000D03*
X111200000Y-103450000D03*
D12*
X117300000Y-107787500D03*
X117300000Y-109612500D03*
D17*
X127900000Y-116500000D03*
D18*
X126750000Y-112500000D03*
D17*
X125600000Y-116500000D03*
D14*
X115300000Y-113412500D03*
X115300000Y-111587500D03*
D19*
X113137500Y-101700000D03*
X116062500Y-101700000D03*
D20*
X101805000Y-118587500D03*
X103075000Y-118587500D03*
X104345000Y-118587500D03*
X105615000Y-118587500D03*
X106885000Y-118587500D03*
X108155000Y-118587500D03*
X109425000Y-118587500D03*
X110695000Y-118587500D03*
X110695000Y-112412500D03*
X109425000Y-112412500D03*
X108155000Y-112412500D03*
X106885000Y-112412500D03*
X105615000Y-112412500D03*
X104345000Y-112412500D03*
X103075000Y-112412500D03*
X101805000Y-112412500D03*
D16*
X109250000Y-106700000D03*
X109250000Y-108800000D03*
D12*
X115362500Y-103887500D03*
X115362500Y-105712500D03*
D21*
X117787500Y-105400000D03*
X119612500Y-105400000D03*
D14*
X121500000Y-105512500D03*
X121500000Y-103687500D03*
D12*
X113112500Y-103637500D03*
X113112500Y-105462500D03*
D15*
X109250000Y-103450000D03*
X109250000Y-101350000D03*
M02*
