G04 #@! TF.GenerationSoftware,KiCad,Pcbnew,7.0.11+dfsg-1build4*
G04 #@! TF.CreationDate,2025-07-05T19:07:05+02:00*
G04 #@! TF.ProjectId,25487,32353438-372e-46b6-9963-61645f706362,rev?*
G04 #@! TF.SameCoordinates,Original*
G04 #@! TF.FileFunction,Copper,L1,Top*
G04 #@! TF.FilePolarity,Positive*
%FSLAX46Y46*%
G04 Gerber Fmt 4.6, Leading zero omitted, Abs format (unit mm)*
G04 Created by KiCad (PCBNEW 7.0.11+dfsg-1build4) date 2025-07-05 19:07:05*
%MOMM*%
%LPD*%
G01*
G04 APERTURE LIST*
G04 Aperture macros list*
%AMRoundRect*
0 Rectangle with rounded corners*
0 $1 Rounding radius*
0 $2 $3 $4 $5 $6 $7 $8 $9 X,Y pos of 4 corners*
0 Add a 4 corners polygon primitive as box body*
4,1,4,$2,$3,$4,$5,$6,$7,$8,$9,$2,$3,0*
0 Add four circle primitives for the rounded corners*
1,1,$1+$1,$2,$3*
1,1,$1+$1,$4,$5*
1,1,$1+$1,$6,$7*
1,1,$1+$1,$8,$9*
0 Add four rect primitives between the rounded corners*
20,1,$1+$1,$2,$3,$4,$5,0*
20,1,$1+$1,$4,$5,$6,$7,0*
20,1,$1+$1,$6,$7,$8,$9,0*
20,1,$1+$1,$8,$9,$2,$3,0*%
G04 Aperture macros list end*
G04 #@! TA.AperFunction,SMDPad,CuDef*
%ADD10RoundRect,0.250000X-0.750000X0.400000X-0.750000X-0.400000X0.750000X-0.400000X0.750000X0.400000X0*%
G04 #@! TD*
G04 #@! TA.AperFunction,SMDPad,CuDef*
%ADD11RoundRect,0.250000X-0.750000X0.750000X-0.750000X-0.750000X0.750000X-0.750000X0.750000X0.750000X0*%
G04 #@! TD*
G04 #@! TA.AperFunction,ComponentPad*
%ADD12R,1.700000X1.700000*%
G04 #@! TD*
G04 #@! TA.AperFunction,ComponentPad*
%ADD13O,1.700000X1.700000*%
G04 #@! TD*
G04 #@! TA.AperFunction,SMDPad,CuDef*
%ADD14RoundRect,0.250000X-0.450000X0.262500X-0.450000X-0.262500X0.450000X-0.262500X0.450000X0.262500X0*%
G04 #@! TD*
G04 #@! TA.AperFunction,SMDPad,CuDef*
%ADD15RoundRect,0.150000X0.150000X-0.512500X0.150000X0.512500X-0.150000X0.512500X-0.150000X-0.512500X0*%
G04 #@! TD*
G04 #@! TA.AperFunction,SMDPad,CuDef*
%ADD16RoundRect,0.250000X0.450000X-0.262500X0.450000X0.262500X-0.450000X0.262500X-0.450000X-0.262500X0*%
G04 #@! TD*
G04 #@! TA.AperFunction,SMDPad,CuDef*
%ADD17RoundRect,0.112500X0.112500X-0.187500X0.112500X0.187500X-0.112500X0.187500X-0.112500X-0.187500X0*%
G04 #@! TD*
G04 #@! TA.AperFunction,SMDPad,CuDef*
%ADD18RoundRect,0.112500X-0.112500X0.187500X-0.112500X-0.187500X0.112500X-0.187500X0.112500X0.187500X0*%
G04 #@! TD*
G04 #@! TA.AperFunction,SMDPad,CuDef*
%ADD19RoundRect,0.250000X0.400000X0.750000X-0.400000X0.750000X-0.400000X-0.750000X0.400000X-0.750000X0*%
G04 #@! TD*
G04 #@! TA.AperFunction,SMDPad,CuDef*
%ADD20RoundRect,0.250000X0.750000X0.750000X-0.750000X0.750000X-0.750000X-0.750000X0.750000X-0.750000X0*%
G04 #@! TD*
G04 #@! TA.AperFunction,ComponentPad*
%ADD21R,3.000000X3.000000*%
G04 #@! TD*
G04 #@! TA.AperFunction,ComponentPad*
%ADD22C,3.000000*%
G04 #@! TD*
G04 #@! TA.AperFunction,SMDPad,CuDef*
%ADD23RoundRect,0.250000X-0.312500X-0.625000X0.312500X-0.625000X0.312500X0.625000X-0.312500X0.625000X0*%
G04 #@! TD*
G04 #@! TA.AperFunction,SMDPad,CuDef*
%ADD24RoundRect,0.162500X0.162500X-0.750000X0.162500X0.750000X-0.162500X0.750000X-0.162500X-0.750000X0*%
G04 #@! TD*
G04 #@! TA.AperFunction,SMDPad,CuDef*
%ADD25RoundRect,0.250000X-0.262500X-0.450000X0.262500X-0.450000X0.262500X0.450000X-0.262500X0.450000X0*%
G04 #@! TD*
G04 #@! TA.AperFunction,ViaPad*
%ADD26C,0.600000*%
G04 #@! TD*
G04 #@! TA.AperFunction,Conductor*
%ADD27C,0.200000*%
G04 #@! TD*
G04 #@! TA.AperFunction,Conductor*
%ADD28C,0.500000*%
G04 #@! TD*
G04 #@! TA.AperFunction,Conductor*
%ADD29C,0.250000*%
G04 #@! TD*
G04 #@! TA.AperFunction,Conductor*
%ADD30C,1.000000*%
G04 #@! TD*
G04 APERTURE END LIST*
D10*
X122250000Y-112100000D03*
D11*
X118250000Y-113250000D03*
D10*
X122250000Y-114400000D03*
D12*
X121300000Y-118000000D03*
D13*
X118760000Y-118000000D03*
X116220000Y-118000000D03*
X113680000Y-118000000D03*
D14*
X115300000Y-107837500D03*
X115300000Y-109662500D03*
D15*
X119550000Y-109737500D03*
X121450000Y-109737500D03*
X120500000Y-107462500D03*
D16*
X113300000Y-113412500D03*
X113300000Y-111587500D03*
D15*
X117750000Y-103537500D03*
X119650000Y-103537500D03*
X118700000Y-101262500D03*
D17*
X111500000Y-108800000D03*
X111500000Y-106700000D03*
D18*
X111200000Y-101350000D03*
X111200000Y-103450000D03*
D14*
X117300000Y-107787500D03*
X117300000Y-109612500D03*
D19*
X127900000Y-116500000D03*
D20*
X126750000Y-112500000D03*
D19*
X125600000Y-116500000D03*
D21*
X104000000Y-107830000D03*
D22*
X104000000Y-102750000D03*
D16*
X115300000Y-113412500D03*
X115300000Y-111587500D03*
D23*
X113137500Y-101700000D03*
X116062500Y-101700000D03*
D24*
X101805000Y-118587500D03*
X103075000Y-118587500D03*
X104345000Y-118587500D03*
X105615000Y-118587500D03*
X106885000Y-118587500D03*
X108155000Y-118587500D03*
X109425000Y-118587500D03*
X110695000Y-118587500D03*
X110695000Y-112412500D03*
X109425000Y-112412500D03*
X108155000Y-112412500D03*
X106885000Y-112412500D03*
X105615000Y-112412500D03*
X104345000Y-112412500D03*
X103075000Y-112412500D03*
X101805000Y-112412500D03*
D18*
X109250000Y-106700000D03*
X109250000Y-108800000D03*
D14*
X115362500Y-103887500D03*
X115362500Y-105712500D03*
D21*
X126500000Y-102710000D03*
D22*
X126500000Y-107790000D03*
D25*
X117787500Y-105400000D03*
X119612500Y-105400000D03*
D16*
X121500000Y-105512500D03*
X121500000Y-103687500D03*
D14*
X113112500Y-103637500D03*
X113112500Y-105462500D03*
D17*
X109250000Y-103450000D03*
X109250000Y-101350000D03*
D26*
X120000000Y-112600000D03*
X127750000Y-115250000D03*
X106500000Y-110100000D03*
X111750000Y-112250000D03*
X123600000Y-112500000D03*
X128750000Y-103000000D03*
X128750000Y-103750000D03*
X107200000Y-110100000D03*
X107200000Y-110800000D03*
X129500000Y-103750000D03*
X122900000Y-104575000D03*
X120250000Y-104575000D03*
X110250000Y-101750000D03*
X127750000Y-114500000D03*
X128500000Y-115250000D03*
X103700000Y-114200000D03*
X106200000Y-114000000D03*
X101750000Y-116750000D03*
X128500000Y-114500000D03*
X106500000Y-110800000D03*
X129500000Y-103000000D03*
X109600000Y-114000000D03*
X111500000Y-101750000D03*
X121450000Y-110100000D03*
X111500000Y-108000000D03*
X108100000Y-119150000D03*
X107900000Y-116800000D03*
X113800000Y-108800000D03*
X113799997Y-108200000D03*
X113200000Y-108200000D03*
X113200000Y-108800000D03*
X110695000Y-112412500D03*
X110511291Y-114203178D03*
X120487500Y-107737500D03*
X116700000Y-103500000D03*
X116700000Y-101250000D03*
X116700000Y-102000000D03*
X116700000Y-102750000D03*
X122203611Y-114660000D03*
X125500000Y-116587500D03*
X105615000Y-112412500D03*
D27*
X112100000Y-117200000D02*
X112082500Y-117200000D01*
X110200000Y-109400000D02*
X110400000Y-109600000D01*
X111750000Y-112250000D02*
X111900000Y-112400000D01*
X119275000Y-108075000D02*
X119325000Y-107750000D01*
X103890000Y-110800000D02*
X103720000Y-110970000D01*
X103720000Y-114220000D02*
X103700000Y-114200000D01*
X103720000Y-114780000D02*
X103720000Y-114220000D01*
D28*
X109600000Y-114000000D02*
X106200000Y-114000000D01*
D29*
X123600000Y-116700000D02*
X112600000Y-116700000D01*
D27*
X119325000Y-107750000D02*
X118950000Y-108400000D01*
X101750000Y-116750000D02*
X103720000Y-114780000D01*
X103720000Y-114180000D02*
X103700000Y-114200000D01*
D28*
X110250000Y-101750000D02*
X110000000Y-101750000D01*
D27*
X123700000Y-116800000D02*
X123600000Y-116700000D01*
X103720000Y-110970000D02*
X103720000Y-114180000D01*
X112600000Y-116700000D02*
X112100000Y-117200000D01*
X110400000Y-109600000D02*
X110600000Y-109600000D01*
X112082500Y-117200000D02*
X110695000Y-118587500D01*
X118950000Y-108400000D02*
X118950000Y-111125000D01*
X106500000Y-110800000D02*
X103890000Y-110800000D01*
X110600000Y-109600000D02*
X112800000Y-109600000D01*
D28*
X111500000Y-108000000D02*
X111500000Y-108800000D01*
X111500000Y-101750000D02*
X111300000Y-101550000D01*
D27*
X108155000Y-118587500D02*
X108155000Y-117055000D01*
X108155000Y-117055000D02*
X107900000Y-116800000D01*
D30*
X108550000Y-102750000D02*
X109250000Y-103450000D01*
X113112500Y-101975000D02*
X113287500Y-101800000D01*
X112925000Y-103450000D02*
X113112500Y-103637500D01*
X109250000Y-103450000D02*
X112925000Y-103450000D01*
X104000000Y-102750000D02*
X108550000Y-102750000D01*
X113112500Y-103637500D02*
X113112500Y-101975000D01*
X109250000Y-106700000D02*
X111500000Y-106700000D01*
X111700000Y-106700000D02*
X111500000Y-106700000D01*
X108120000Y-107830000D02*
X109250000Y-106700000D01*
X104000000Y-107830000D02*
X108120000Y-107830000D01*
X113200000Y-108200000D02*
X111700000Y-106700000D01*
D27*
X109425000Y-112976471D02*
X109425000Y-112412500D01*
X110511291Y-114203178D02*
X110511291Y-114062762D01*
X110511291Y-114062762D02*
X109425000Y-112976471D01*
X101805000Y-118587500D02*
X101805000Y-117675001D01*
X101805000Y-117675001D02*
X104080001Y-115400000D01*
X104080001Y-115400000D02*
X112475000Y-115400000D01*
X112475000Y-115400000D02*
X113312500Y-115400000D01*
X113312500Y-115400000D02*
X115300000Y-113412500D01*
X104345000Y-112412500D02*
X104345000Y-113324999D01*
X105920001Y-114900000D02*
X111812500Y-114900000D01*
X104345000Y-113324999D02*
X105920001Y-114900000D01*
X111812500Y-114900000D02*
X113300000Y-113412500D01*
X120500000Y-107462500D02*
X120500000Y-107725000D01*
X120500000Y-107725000D02*
X120487500Y-107737500D01*
X102767500Y-105462500D02*
X101700000Y-106530000D01*
X101700000Y-106530000D02*
X101700000Y-110500000D01*
X103075000Y-111875000D02*
X103075000Y-112412500D01*
X115300000Y-107837500D02*
X115300000Y-107650000D01*
X115300000Y-107650000D02*
X113112500Y-105462500D01*
X101700000Y-110500000D02*
X103075000Y-111875000D01*
X113112500Y-105462500D02*
X102767500Y-105462500D01*
X101100000Y-106200000D02*
X101100000Y-111707500D01*
X114300000Y-104650000D02*
X102650000Y-104650000D01*
X102650000Y-104650000D02*
X101100000Y-106200000D01*
X117300000Y-107650000D02*
X115362500Y-105712500D01*
X101100000Y-111707500D02*
X101805000Y-112412500D01*
X115362500Y-105712500D02*
X114300000Y-104650000D01*
X117300000Y-107787500D02*
X117300000Y-107650000D01*
X121500000Y-107787500D02*
X119550000Y-109737500D01*
X121500000Y-105512500D02*
X121500000Y-107787500D01*
X121500000Y-103687500D02*
X121125000Y-103687500D01*
X121125000Y-103687500D02*
X118700000Y-101262500D01*
X116862500Y-111587500D02*
X115300000Y-111587500D01*
X118375000Y-105987500D02*
X118375000Y-110075000D01*
X117787500Y-105400000D02*
X118375000Y-105987500D01*
X117750000Y-103537500D02*
X117750000Y-105362500D01*
X113350000Y-111587500D02*
X113300000Y-111637500D01*
X117750000Y-105362500D02*
X117787500Y-105400000D01*
X115300000Y-111587500D02*
X113350000Y-111587500D01*
X118375000Y-110075000D02*
X116862500Y-111587500D01*
X122203611Y-114660000D02*
X122203611Y-114446389D01*
X122203611Y-114446389D02*
X122250000Y-114400000D01*
X125600000Y-116500000D02*
X125587500Y-116500000D01*
X125587500Y-116500000D02*
X125500000Y-116587500D01*
X117400000Y-115800000D02*
X104950001Y-115800000D01*
X103075000Y-117675001D02*
X103075000Y-118587500D01*
X104950001Y-115800000D02*
X103075000Y-117675001D01*
X118250000Y-114950000D02*
X117400000Y-115800000D01*
X118250000Y-113250000D02*
X118250000Y-114950000D01*
X126750000Y-112500000D02*
X123050000Y-116200000D01*
X123050000Y-116200000D02*
X105451471Y-116200000D01*
X105451471Y-116200000D02*
X104345000Y-117306471D01*
X104345000Y-117306471D02*
X104345000Y-118587500D01*
X105600000Y-118572500D02*
X105615000Y-118587500D01*
G04 #@! TA.AperFunction,Conductor*
G36*
X116763321Y-100819685D02*
G01*
X116809076Y-100872489D01*
X116812464Y-100880668D01*
X116817107Y-100893116D01*
X116817110Y-100893124D01*
X116850591Y-100954440D01*
X116922866Y-101050987D01*
X116928592Y-101059325D01*
X116960034Y-101109364D01*
X116972082Y-101134382D01*
X116981887Y-101162404D01*
X116984809Y-101170753D01*
X116990987Y-101197821D01*
X116992707Y-101213080D01*
X116995302Y-101236114D01*
X116995302Y-101263876D01*
X116990986Y-101302176D01*
X116984809Y-101329243D01*
X116954079Y-101417068D01*
X116946184Y-101441620D01*
X116942611Y-101453787D01*
X116935990Y-101478668D01*
X116922799Y-101621949D01*
X116926362Y-101691727D01*
X116954071Y-101832910D01*
X116954072Y-101832912D01*
X116984808Y-101920753D01*
X116990986Y-101947821D01*
X116995301Y-101986115D01*
X116995301Y-102013882D01*
X116989877Y-102062026D01*
X116985548Y-102083369D01*
X116983729Y-102089507D01*
X116983722Y-102089531D01*
X116978025Y-102112842D01*
X116978023Y-102112851D01*
X116968719Y-102160906D01*
X116968718Y-102160922D01*
X116968718Y-102304794D01*
X116972644Y-102332094D01*
X116978663Y-102373955D01*
X116994977Y-102429517D01*
X117000000Y-102464449D01*
X117000000Y-102740950D01*
X116995076Y-102775545D01*
X116952402Y-102922426D01*
X116952401Y-102922432D01*
X116949500Y-102959298D01*
X116949500Y-103668571D01*
X116929815Y-103735610D01*
X116877011Y-103781365D01*
X116821708Y-103792513D01*
X116776445Y-103791127D01*
X116756386Y-103790514D01*
X116756385Y-103790514D01*
X116756377Y-103790514D01*
X116706047Y-103796185D01*
X116685096Y-103796763D01*
X116657849Y-103795207D01*
X116657835Y-103795206D01*
X116630686Y-103795155D01*
X116630534Y-103795155D01*
X116630533Y-103795155D01*
X116630531Y-103795155D01*
X116630530Y-103795155D01*
X116574868Y-103798122D01*
X116574860Y-103798124D01*
X116435497Y-103833893D01*
X116370988Y-103860715D01*
X116370981Y-103860718D01*
X116247349Y-103934294D01*
X116247348Y-103934295D01*
X116149454Y-104039720D01*
X116109676Y-104097171D01*
X116109668Y-104097184D01*
X116045443Y-104225917D01*
X116040612Y-104240495D01*
X116028448Y-104266579D01*
X116013596Y-104290659D01*
X115995738Y-104313244D01*
X115954115Y-104354867D01*
X115954098Y-104354886D01*
X115886306Y-104439009D01*
X115886302Y-104439014D01*
X115857795Y-104483371D01*
X115808674Y-104581504D01*
X115761064Y-104632641D01*
X115697790Y-104650000D01*
X115200597Y-104650000D01*
X115133558Y-104630315D01*
X115112916Y-104613681D01*
X114758199Y-104258964D01*
X114747504Y-104246769D01*
X114741557Y-104239019D01*
X114728282Y-104221718D01*
X114602841Y-104125464D01*
X114602840Y-104125463D01*
X114576546Y-104114572D01*
X114522143Y-104070730D01*
X114500079Y-104004436D01*
X114500000Y-104000011D01*
X114500000Y-103654353D01*
X114519685Y-103587314D01*
X114572489Y-103541559D01*
X114580659Y-103538173D01*
X114605192Y-103529024D01*
X114660025Y-103499083D01*
X114661125Y-103498565D01*
X114666473Y-103495562D01*
X114666515Y-103495540D01*
X114666520Y-103495538D01*
X114712693Y-103460972D01*
X114721903Y-103454703D01*
X114731216Y-103448958D01*
X114795919Y-103409049D01*
X114822002Y-103396886D01*
X114853266Y-103386526D01*
X114879698Y-103380872D01*
X114880728Y-103380767D01*
X114882000Y-103380638D01*
X114894562Y-103380000D01*
X114984983Y-103380000D01*
X114984984Y-103380000D01*
X114984985Y-103379999D01*
X114985000Y-103379999D01*
X115056591Y-103372636D01*
X115087854Y-103369421D01*
X115137267Y-103359150D01*
X115235839Y-103327856D01*
X115358298Y-103252322D01*
X115411940Y-103207552D01*
X115508153Y-103100584D01*
X115570337Y-102970835D01*
X115589850Y-102908663D01*
X115590588Y-102906593D01*
X115591262Y-102904167D01*
X115604401Y-102823422D01*
X115614371Y-102762154D01*
X115596535Y-102619384D01*
X115578095Y-102551992D01*
X115534059Y-102450643D01*
X115530088Y-102440247D01*
X115526531Y-102429513D01*
X115511527Y-102384234D01*
X115505873Y-102357806D01*
X115505639Y-102355510D01*
X115505000Y-102342937D01*
X115505000Y-101057054D01*
X115505638Y-101044491D01*
X115505872Y-101042194D01*
X115511528Y-101015759D01*
X115521885Y-100984506D01*
X115534055Y-100958410D01*
X115536181Y-100954963D01*
X115536183Y-100954960D01*
X115577227Y-100870040D01*
X115624124Y-100818247D01*
X115688871Y-100800000D01*
X116696282Y-100800000D01*
X116763321Y-100819685D01*
G37*
G04 #@! TD.AperFunction*
G04 #@! TA.AperFunction,Conductor*
G36*
X100705703Y-112162884D02*
G01*
X100712181Y-112168916D01*
X100943181Y-112399916D01*
X100976666Y-112461239D01*
X100979500Y-112487597D01*
X100979500Y-113216098D01*
X100985568Y-113282882D01*
X100985571Y-113282893D01*
X101033467Y-113436598D01*
X101116766Y-113574391D01*
X101230608Y-113688233D01*
X101230610Y-113688234D01*
X101230612Y-113688236D01*
X101368398Y-113771531D01*
X101522113Y-113819430D01*
X101588909Y-113825500D01*
X102021090Y-113825499D01*
X102021098Y-113825499D01*
X102087882Y-113819431D01*
X102087885Y-113819430D01*
X102087887Y-113819430D01*
X102241602Y-113771531D01*
X102375852Y-113690373D01*
X102443404Y-113672538D01*
X102504147Y-113690373D01*
X102638398Y-113771531D01*
X102792113Y-113819430D01*
X102858909Y-113825500D01*
X103291090Y-113825499D01*
X103291098Y-113825499D01*
X103357882Y-113819431D01*
X103357885Y-113819430D01*
X103357887Y-113819430D01*
X103511602Y-113771531D01*
X103645852Y-113690373D01*
X103713404Y-113672538D01*
X103774147Y-113690373D01*
X103908398Y-113771531D01*
X103928462Y-113777783D01*
X103979253Y-113808487D01*
X104758585Y-114587819D01*
X104792070Y-114649142D01*
X104787086Y-114718834D01*
X104745214Y-114774767D01*
X104679750Y-114799184D01*
X104670904Y-114799500D01*
X104127488Y-114799500D01*
X104111303Y-114798439D01*
X104080001Y-114794318D01*
X104040640Y-114799500D01*
X103923240Y-114814955D01*
X103923238Y-114814956D01*
X103777161Y-114875463D01*
X103651715Y-114971721D01*
X103632496Y-114996769D01*
X103621801Y-115008964D01*
X101439252Y-117191512D01*
X101388463Y-117222216D01*
X101368400Y-117228468D01*
X101230608Y-117311766D01*
X101116766Y-117425608D01*
X101033469Y-117563397D01*
X100985569Y-117717116D01*
X100979500Y-117783911D01*
X100979501Y-119375500D01*
X100959816Y-119442539D01*
X100907013Y-119488294D01*
X100855501Y-119499500D01*
X100624500Y-119499500D01*
X100557461Y-119479815D01*
X100511706Y-119427011D01*
X100500500Y-119375500D01*
X100500500Y-112256597D01*
X100520185Y-112189558D01*
X100572989Y-112143803D01*
X100642147Y-112133859D01*
X100705703Y-112162884D01*
G37*
G04 #@! TD.AperFunction*
G04 #@! TA.AperFunction,Conductor*
G36*
X112737989Y-116820185D02*
G01*
X112783744Y-116872989D01*
X112793688Y-116942147D01*
X112764663Y-117005703D01*
X112758631Y-117012181D01*
X112641891Y-117128920D01*
X112641886Y-117128926D01*
X112506400Y-117322420D01*
X112506399Y-117322422D01*
X112406570Y-117536507D01*
X112406567Y-117536513D01*
X112349364Y-117749999D01*
X112349364Y-117750000D01*
X113246314Y-117750000D01*
X113220507Y-117790156D01*
X113180000Y-117928111D01*
X113180000Y-118071889D01*
X113220507Y-118209844D01*
X113246314Y-118250000D01*
X112349364Y-118250000D01*
X112406567Y-118463486D01*
X112406570Y-118463492D01*
X112506399Y-118677578D01*
X112641894Y-118871082D01*
X112808917Y-119038105D01*
X113002421Y-119173600D01*
X113194393Y-119263118D01*
X113246832Y-119309290D01*
X113265984Y-119376484D01*
X113245768Y-119443365D01*
X113192603Y-119488700D01*
X113141988Y-119499500D01*
X110374500Y-119499500D01*
X110307461Y-119479815D01*
X110261706Y-119427011D01*
X110250500Y-119375500D01*
X110250499Y-117783901D01*
X110244431Y-117717117D01*
X110244428Y-117717106D01*
X110196532Y-117563401D01*
X110196531Y-117563400D01*
X110196531Y-117563398D01*
X110113236Y-117425612D01*
X110113234Y-117425610D01*
X110113233Y-117425608D01*
X109999391Y-117311766D01*
X109995849Y-117309625D01*
X109861602Y-117228469D01*
X109707887Y-117180570D01*
X109707885Y-117180569D01*
X109707883Y-117180569D01*
X109661117Y-117176319D01*
X109641091Y-117174500D01*
X109641088Y-117174500D01*
X109208901Y-117174500D01*
X109142117Y-117180568D01*
X109142106Y-117180571D01*
X108988400Y-117228467D01*
X108988396Y-117228469D01*
X108943649Y-117255520D01*
X108876094Y-117273356D01*
X108809621Y-117251838D01*
X108765333Y-117197797D01*
X108755500Y-117149403D01*
X108755500Y-117102487D01*
X108756561Y-117086301D01*
X108757479Y-117079327D01*
X108760682Y-117055000D01*
X108745632Y-116940684D01*
X108756397Y-116871650D01*
X108802777Y-116819394D01*
X108868571Y-116800500D01*
X112670950Y-116800500D01*
X112737989Y-116820185D01*
G37*
G04 #@! TD.AperFunction*
G04 #@! TA.AperFunction,Conductor*
G36*
X124849802Y-100520185D02*
G01*
X124895557Y-100572989D01*
X124905501Y-100642147D01*
X124876476Y-100705703D01*
X124826096Y-100740682D01*
X124757671Y-100766202D01*
X124757664Y-100766206D01*
X124642455Y-100852452D01*
X124642452Y-100852455D01*
X124556206Y-100967664D01*
X124556202Y-100967671D01*
X124505908Y-101102517D01*
X124499501Y-101162116D01*
X124499501Y-101162123D01*
X124499500Y-101162135D01*
X124499500Y-104257870D01*
X124499501Y-104257876D01*
X124505908Y-104317483D01*
X124556202Y-104452328D01*
X124556206Y-104452335D01*
X124642452Y-104567544D01*
X124642455Y-104567547D01*
X124757664Y-104653793D01*
X124757671Y-104653797D01*
X124892517Y-104704091D01*
X124892516Y-104704091D01*
X124899444Y-104704835D01*
X124952127Y-104710500D01*
X128047872Y-104710499D01*
X128107483Y-104704091D01*
X128242331Y-104653796D01*
X128357546Y-104567546D01*
X128443796Y-104452331D01*
X128494091Y-104317483D01*
X128500500Y-104257873D01*
X128500499Y-101162128D01*
X128494091Y-101102517D01*
X128493374Y-101100595D01*
X128443797Y-100967671D01*
X128443793Y-100967664D01*
X128357547Y-100852455D01*
X128357544Y-100852452D01*
X128242335Y-100766206D01*
X128242328Y-100766202D01*
X128173904Y-100740682D01*
X128117970Y-100698811D01*
X128093553Y-100633347D01*
X128108405Y-100565074D01*
X128157810Y-100515668D01*
X128217237Y-100500500D01*
X129875500Y-100500500D01*
X129942539Y-100520185D01*
X129988294Y-100572989D01*
X129999500Y-100624500D01*
X129999500Y-119375500D01*
X129979815Y-119442539D01*
X129927011Y-119488294D01*
X129875500Y-119499500D01*
X122490103Y-119499500D01*
X122423064Y-119479815D01*
X122377309Y-119427011D01*
X122367365Y-119357853D01*
X122396390Y-119294297D01*
X122415792Y-119276234D01*
X122475240Y-119231730D01*
X122507546Y-119207546D01*
X122593796Y-119092331D01*
X122644091Y-118957483D01*
X122650500Y-118897873D01*
X122650499Y-117102128D01*
X122644091Y-117042517D01*
X122632776Y-117012181D01*
X122616236Y-116967833D01*
X122611252Y-116898141D01*
X122644737Y-116836818D01*
X122706061Y-116803334D01*
X122732418Y-116800500D01*
X123002513Y-116800500D01*
X123018697Y-116801560D01*
X123050000Y-116805682D01*
X123050001Y-116805682D01*
X123102254Y-116798802D01*
X123206762Y-116785044D01*
X123352841Y-116724536D01*
X123430512Y-116664937D01*
X123478282Y-116628282D01*
X123497509Y-116603223D01*
X123508190Y-116591043D01*
X124237821Y-115861412D01*
X124299142Y-115827929D01*
X124368834Y-115832913D01*
X124424767Y-115874785D01*
X124449184Y-115940249D01*
X124449500Y-115949095D01*
X124449500Y-117300001D01*
X124449501Y-117300018D01*
X124460000Y-117402796D01*
X124460001Y-117402799D01*
X124467561Y-117425612D01*
X124515186Y-117569334D01*
X124607288Y-117718656D01*
X124731344Y-117842712D01*
X124880666Y-117934814D01*
X125047203Y-117989999D01*
X125149991Y-118000500D01*
X126050008Y-118000499D01*
X126050016Y-118000498D01*
X126050019Y-118000498D01*
X126106302Y-117994748D01*
X126152797Y-117989999D01*
X126319334Y-117934814D01*
X126468656Y-117842712D01*
X126592712Y-117718656D01*
X126684814Y-117569334D01*
X126739999Y-117402797D01*
X126750500Y-117300009D01*
X126750499Y-115699992D01*
X126739999Y-115597203D01*
X126684814Y-115430666D01*
X126592712Y-115281344D01*
X126468656Y-115157288D01*
X126319334Y-115065186D01*
X126152797Y-115010001D01*
X126152795Y-115010000D01*
X126050016Y-114999500D01*
X125399095Y-114999500D01*
X125332056Y-114979815D01*
X125286301Y-114927011D01*
X125276357Y-114857853D01*
X125305382Y-114794297D01*
X125311400Y-114787833D01*
X126062416Y-114036818D01*
X126123739Y-114003333D01*
X126150097Y-114000499D01*
X127550002Y-114000499D01*
X127550008Y-114000499D01*
X127652797Y-113989999D01*
X127819334Y-113934814D01*
X127968656Y-113842712D01*
X128092712Y-113718656D01*
X128184814Y-113569334D01*
X128239999Y-113402797D01*
X128250500Y-113300009D01*
X128250499Y-111699992D01*
X128248151Y-111677011D01*
X128239999Y-111597203D01*
X128239998Y-111597200D01*
X128184814Y-111430666D01*
X128092712Y-111281344D01*
X127968656Y-111157288D01*
X127819334Y-111065186D01*
X127652797Y-111010001D01*
X127652795Y-111010000D01*
X127550010Y-110999500D01*
X125949998Y-110999500D01*
X125949981Y-110999501D01*
X125847203Y-111010000D01*
X125847200Y-111010001D01*
X125680668Y-111065185D01*
X125680663Y-111065187D01*
X125531342Y-111157289D01*
X125407289Y-111281342D01*
X125315187Y-111430663D01*
X125315186Y-111430666D01*
X125260001Y-111597203D01*
X125260001Y-111597204D01*
X125260000Y-111597204D01*
X125249500Y-111699983D01*
X125249500Y-113099902D01*
X125229815Y-113166941D01*
X125213181Y-113187583D01*
X123962180Y-114438584D01*
X123900857Y-114472069D01*
X123831165Y-114467085D01*
X123775232Y-114425213D01*
X123750815Y-114359749D01*
X123750499Y-114350903D01*
X123750499Y-113949998D01*
X123750498Y-113949981D01*
X123739999Y-113847203D01*
X123739998Y-113847200D01*
X123727170Y-113808487D01*
X123684814Y-113680666D01*
X123592712Y-113531344D01*
X123468656Y-113407288D01*
X123319334Y-113315186D01*
X123152797Y-113260001D01*
X123152795Y-113260000D01*
X123050010Y-113249500D01*
X121449998Y-113249500D01*
X121449981Y-113249501D01*
X121347203Y-113260000D01*
X121347200Y-113260001D01*
X121180668Y-113315185D01*
X121180663Y-113315187D01*
X121031342Y-113407289D01*
X120907289Y-113531342D01*
X120815187Y-113680663D01*
X120815185Y-113680668D01*
X120800492Y-113725008D01*
X120760001Y-113847203D01*
X120760001Y-113847204D01*
X120760000Y-113847204D01*
X120749500Y-113949983D01*
X120749500Y-114850001D01*
X120749501Y-114850019D01*
X120760000Y-114952796D01*
X120760001Y-114952799D01*
X120794813Y-115057853D01*
X120815186Y-115119334D01*
X120897533Y-115252841D01*
X120907289Y-115268657D01*
X121026451Y-115387819D01*
X121059936Y-115449142D01*
X121054952Y-115518834D01*
X121013080Y-115574767D01*
X120947616Y-115599184D01*
X120938770Y-115599500D01*
X118755277Y-115599500D01*
X118688238Y-115579815D01*
X118642483Y-115527011D01*
X118632539Y-115457853D01*
X118661564Y-115394297D01*
X118673722Y-115382841D01*
X118678282Y-115378282D01*
X118774535Y-115252842D01*
X118774534Y-115252842D01*
X118774536Y-115252841D01*
X118835044Y-115106762D01*
X118841627Y-115056762D01*
X118855683Y-114950000D01*
X118852656Y-114927011D01*
X118851561Y-114918689D01*
X118850500Y-114902504D01*
X118850500Y-114874499D01*
X118870185Y-114807460D01*
X118922989Y-114761705D01*
X118974500Y-114750499D01*
X119050002Y-114750499D01*
X119050008Y-114750499D01*
X119152797Y-114739999D01*
X119319334Y-114684814D01*
X119468656Y-114592712D01*
X119592712Y-114468656D01*
X119684814Y-114319334D01*
X119739999Y-114152797D01*
X119750500Y-114050009D01*
X119750499Y-112449992D01*
X119739999Y-112347203D01*
X119684814Y-112180666D01*
X119592712Y-112031344D01*
X119468656Y-111907288D01*
X119319334Y-111815186D01*
X119152797Y-111760001D01*
X119152795Y-111760000D01*
X119050016Y-111749500D01*
X119050009Y-111749500D01*
X117849096Y-111749500D01*
X117782057Y-111729815D01*
X117736302Y-111677011D01*
X117726358Y-111607853D01*
X117755383Y-111544297D01*
X117761415Y-111537819D01*
X118164609Y-111134625D01*
X118681719Y-110617514D01*
X118743040Y-110584031D01*
X118812731Y-110589015D01*
X118868665Y-110630887D01*
X118876131Y-110642078D01*
X118881916Y-110651861D01*
X118881923Y-110651870D01*
X118998129Y-110768076D01*
X118998133Y-110768079D01*
X118998135Y-110768081D01*
X119139602Y-110851744D01*
X119155435Y-110856344D01*
X119297426Y-110897597D01*
X119297429Y-110897597D01*
X119297431Y-110897598D01*
X119334306Y-110900500D01*
X119334314Y-110900500D01*
X119765686Y-110900500D01*
X119765694Y-110900500D01*
X119802569Y-110897598D01*
X119802571Y-110897597D01*
X119802573Y-110897597D01*
X119844191Y-110885505D01*
X119960398Y-110851744D01*
X120101865Y-110768081D01*
X120218081Y-110651865D01*
X120301744Y-110510398D01*
X120347598Y-110352569D01*
X120350500Y-110315694D01*
X120350500Y-109837597D01*
X120370185Y-109770558D01*
X120386819Y-109749916D01*
X120437819Y-109698916D01*
X120499142Y-109665431D01*
X120568834Y-109670415D01*
X120624767Y-109712287D01*
X120649184Y-109777751D01*
X120649500Y-109786597D01*
X120649500Y-110048085D01*
X120648720Y-110061969D01*
X120644435Y-110099998D01*
X120644435Y-110100001D01*
X120648720Y-110138029D01*
X120649500Y-110151914D01*
X120649500Y-110315701D01*
X120652401Y-110352567D01*
X120652402Y-110352573D01*
X120698254Y-110510393D01*
X120698255Y-110510396D01*
X120781917Y-110651862D01*
X120781923Y-110651870D01*
X120898129Y-110768076D01*
X120898133Y-110768079D01*
X120898135Y-110768081D01*
X121039602Y-110851744D01*
X121055435Y-110856344D01*
X121197426Y-110897597D01*
X121197429Y-110897597D01*
X121197431Y-110897598D01*
X121234306Y-110900500D01*
X121398085Y-110900500D01*
X121411969Y-110901280D01*
X121449998Y-110905565D01*
X121450000Y-110905565D01*
X121450002Y-110905565D01*
X121488031Y-110901280D01*
X121501915Y-110900500D01*
X121665686Y-110900500D01*
X121665694Y-110900500D01*
X121702569Y-110897598D01*
X121702571Y-110897597D01*
X121702573Y-110897597D01*
X121744191Y-110885505D01*
X121860398Y-110851744D01*
X122001865Y-110768081D01*
X122118081Y-110651865D01*
X122201744Y-110510398D01*
X122247598Y-110352569D01*
X122250500Y-110315694D01*
X122250500Y-110151914D01*
X122251280Y-110138029D01*
X122255565Y-110100001D01*
X122255565Y-110099998D01*
X122251280Y-110061969D01*
X122250500Y-110048085D01*
X122250500Y-109159313D01*
X122250499Y-109159298D01*
X122247598Y-109122432D01*
X122247597Y-109122426D01*
X122206001Y-108979255D01*
X122201744Y-108964602D01*
X122118081Y-108823135D01*
X122118079Y-108823133D01*
X122118076Y-108823129D01*
X122001870Y-108706923D01*
X122001862Y-108706917D01*
X121889639Y-108640549D01*
X121860398Y-108623256D01*
X121860397Y-108623255D01*
X121860396Y-108623255D01*
X121860395Y-108623254D01*
X121792924Y-108603652D01*
X121734039Y-108566045D01*
X121704833Y-108502573D01*
X121714579Y-108433386D01*
X121739835Y-108396899D01*
X121891045Y-108245689D01*
X121903230Y-108235003D01*
X121928282Y-108215782D01*
X121963271Y-108170184D01*
X122024536Y-108090341D01*
X122085044Y-107944262D01*
X122105353Y-107790001D01*
X124494390Y-107790001D01*
X124514804Y-108075433D01*
X124575628Y-108355037D01*
X124575630Y-108355043D01*
X124575631Y-108355046D01*
X124670501Y-108609401D01*
X124675635Y-108623166D01*
X124812770Y-108874309D01*
X124812775Y-108874317D01*
X124984254Y-109103387D01*
X124984270Y-109103405D01*
X125186594Y-109305729D01*
X125186612Y-109305745D01*
X125415682Y-109477224D01*
X125415690Y-109477229D01*
X125666833Y-109614364D01*
X125666832Y-109614364D01*
X125666836Y-109614365D01*
X125666839Y-109614367D01*
X125934954Y-109714369D01*
X125934960Y-109714370D01*
X125934962Y-109714371D01*
X126214566Y-109775195D01*
X126214568Y-109775195D01*
X126214572Y-109775196D01*
X126468220Y-109793337D01*
X126499999Y-109795610D01*
X126500000Y-109795610D01*
X126500001Y-109795610D01*
X126528595Y-109793564D01*
X126785428Y-109775196D01*
X126791860Y-109773797D01*
X127065037Y-109714371D01*
X127065037Y-109714370D01*
X127065046Y-109714369D01*
X127333161Y-109614367D01*
X127584315Y-109477226D01*
X127813395Y-109305739D01*
X128015739Y-109103395D01*
X128187226Y-108874315D01*
X128324367Y-108623161D01*
X128424369Y-108355046D01*
X128485196Y-108075428D01*
X128505610Y-107790000D01*
X128485196Y-107504572D01*
X128463623Y-107405404D01*
X128424371Y-107224962D01*
X128424370Y-107224960D01*
X128424369Y-107224954D01*
X128324367Y-106956839D01*
X128284756Y-106884298D01*
X128187229Y-106705690D01*
X128187224Y-106705682D01*
X128015745Y-106476612D01*
X128015729Y-106476594D01*
X127813405Y-106274270D01*
X127813387Y-106274254D01*
X127584317Y-106102775D01*
X127584309Y-106102770D01*
X127333166Y-105965635D01*
X127333167Y-105965635D01*
X127157214Y-105900008D01*
X127065046Y-105865631D01*
X127065043Y-105865630D01*
X127065037Y-105865628D01*
X126785433Y-105804804D01*
X126500001Y-105784390D01*
X126499999Y-105784390D01*
X126214566Y-105804804D01*
X125934962Y-105865628D01*
X125666833Y-105965635D01*
X125415690Y-106102770D01*
X125415682Y-106102775D01*
X125186612Y-106274254D01*
X125186594Y-106274270D01*
X124984270Y-106476594D01*
X124984254Y-106476612D01*
X124812775Y-106705682D01*
X124812770Y-106705690D01*
X124675635Y-106956833D01*
X124575628Y-107224962D01*
X124514804Y-107504566D01*
X124494390Y-107789998D01*
X124494390Y-107790001D01*
X122105353Y-107790001D01*
X122105682Y-107787500D01*
X122101561Y-107756197D01*
X122100500Y-107740012D01*
X122100500Y-106605300D01*
X122120185Y-106538261D01*
X122172989Y-106492506D01*
X122185482Y-106487599D01*
X122269334Y-106459814D01*
X122418656Y-106367712D01*
X122542712Y-106243656D01*
X122634814Y-106094334D01*
X122689999Y-105927797D01*
X122700500Y-105825009D01*
X122700499Y-105199992D01*
X122700370Y-105198734D01*
X122689999Y-105097203D01*
X122689998Y-105097200D01*
X122651606Y-104981342D01*
X122634814Y-104930666D01*
X122542712Y-104781344D01*
X122449049Y-104687681D01*
X122415564Y-104626358D01*
X122420548Y-104556666D01*
X122449049Y-104512319D01*
X122492039Y-104469329D01*
X122542712Y-104418656D01*
X122634814Y-104269334D01*
X122689999Y-104102797D01*
X122700500Y-104000009D01*
X122700499Y-103374992D01*
X122694375Y-103315046D01*
X122689999Y-103272203D01*
X122689998Y-103272200D01*
X122651607Y-103156344D01*
X122634814Y-103105666D01*
X122542712Y-102956344D01*
X122418656Y-102832288D01*
X122308925Y-102764606D01*
X122269336Y-102740187D01*
X122269331Y-102740185D01*
X122192923Y-102714866D01*
X122102797Y-102685001D01*
X122102795Y-102685000D01*
X122000016Y-102674500D01*
X121012597Y-102674500D01*
X120945558Y-102654815D01*
X120924916Y-102638181D01*
X119536819Y-101250084D01*
X119503334Y-101188761D01*
X119500500Y-101162403D01*
X119500500Y-100684313D01*
X119500499Y-100684298D01*
X119497598Y-100647431D01*
X119497480Y-100646785D01*
X119497518Y-100646419D01*
X119497101Y-100641114D01*
X119498085Y-100641036D01*
X119504796Y-100577299D01*
X119548517Y-100522799D01*
X119614763Y-100500589D01*
X119619461Y-100500500D01*
X124782763Y-100500500D01*
X124849802Y-100520185D01*
G37*
G04 #@! TD.AperFunction*
G04 #@! TA.AperFunction,Conductor*
G36*
X115277280Y-116820185D02*
G01*
X115323035Y-116872989D01*
X115332979Y-116942147D01*
X115303954Y-117005703D01*
X115297922Y-117012181D01*
X115181508Y-117128594D01*
X115051269Y-117314595D01*
X114996692Y-117358219D01*
X114927193Y-117365412D01*
X114864839Y-117333890D01*
X114848119Y-117314594D01*
X114718113Y-117128926D01*
X114718108Y-117128920D01*
X114601369Y-117012181D01*
X114567884Y-116950858D01*
X114572868Y-116881166D01*
X114614740Y-116825233D01*
X114680204Y-116800816D01*
X114689050Y-116800500D01*
X115210241Y-116800500D01*
X115277280Y-116820185D01*
G37*
G04 #@! TD.AperFunction*
G04 #@! TA.AperFunction,Conductor*
G36*
X117817280Y-116820185D02*
G01*
X117863035Y-116872989D01*
X117872979Y-116942147D01*
X117843954Y-117005703D01*
X117837922Y-117012181D01*
X117721505Y-117128597D01*
X117591575Y-117314158D01*
X117536998Y-117357783D01*
X117467500Y-117364977D01*
X117405145Y-117333454D01*
X117388425Y-117314158D01*
X117258496Y-117128600D01*
X117209223Y-117079327D01*
X117142075Y-117012179D01*
X117108592Y-116950859D01*
X117113576Y-116881167D01*
X117155447Y-116825233D01*
X117220911Y-116800816D01*
X117229758Y-116800500D01*
X117750241Y-116800500D01*
X117817280Y-116820185D01*
G37*
G04 #@! TD.AperFunction*
G04 #@! TA.AperFunction,Conductor*
G36*
X108854147Y-113690373D02*
G01*
X108988398Y-113771531D01*
X109142113Y-113819430D01*
X109208909Y-113825500D01*
X109373430Y-113825499D01*
X109440470Y-113845183D01*
X109461112Y-113861818D01*
X109673297Y-114074004D01*
X109706782Y-114135327D01*
X109708837Y-114175564D01*
X109707281Y-114189379D01*
X109680217Y-114253794D01*
X109622623Y-114293351D01*
X109584060Y-114299500D01*
X106220098Y-114299500D01*
X106153059Y-114279815D01*
X106132417Y-114263181D01*
X105883415Y-114014179D01*
X105849930Y-113952856D01*
X105854914Y-113883164D01*
X105896786Y-113827231D01*
X105934202Y-113808113D01*
X106051602Y-113771531D01*
X106185852Y-113690373D01*
X106253404Y-113672538D01*
X106314147Y-113690373D01*
X106448398Y-113771531D01*
X106602113Y-113819430D01*
X106668909Y-113825500D01*
X107101090Y-113825499D01*
X107101098Y-113825499D01*
X107167882Y-113819431D01*
X107167885Y-113819430D01*
X107167887Y-113819430D01*
X107321602Y-113771531D01*
X107455852Y-113690373D01*
X107523404Y-113672538D01*
X107584147Y-113690373D01*
X107718398Y-113771531D01*
X107872113Y-113819430D01*
X107938909Y-113825500D01*
X108371090Y-113825499D01*
X108371098Y-113825499D01*
X108437882Y-113819431D01*
X108437885Y-113819430D01*
X108437887Y-113819430D01*
X108591602Y-113771531D01*
X108725852Y-113690373D01*
X108793404Y-113672538D01*
X108854147Y-113690373D01*
G37*
G04 #@! TD.AperFunction*
G04 #@! TA.AperFunction,Conductor*
G36*
X110656463Y-107720185D02*
G01*
X110702218Y-107772989D01*
X110712644Y-107838383D01*
X110694435Y-107999996D01*
X110694435Y-108000003D01*
X110714630Y-108179249D01*
X110714631Y-108179254D01*
X110742542Y-108259017D01*
X110749500Y-108299972D01*
X110749500Y-108843709D01*
X110764759Y-108974255D01*
X110764759Y-108974257D01*
X110764760Y-108974259D01*
X110764760Y-108974262D01*
X110767023Y-108980478D01*
X110774500Y-109022880D01*
X110774500Y-109049403D01*
X110777234Y-109084152D01*
X110777234Y-109084155D01*
X110777235Y-109084156D01*
X110820445Y-109232887D01*
X110820446Y-109232888D01*
X110899282Y-109366194D01*
X110899289Y-109366203D01*
X111008796Y-109475710D01*
X111008805Y-109475717D01*
X111011357Y-109477226D01*
X111142113Y-109554555D01*
X111290844Y-109597765D01*
X111325595Y-109600500D01*
X111674404Y-109600499D01*
X111709156Y-109597765D01*
X111857887Y-109554555D01*
X111991198Y-109475715D01*
X112100715Y-109366198D01*
X112179555Y-109232887D01*
X112218333Y-109099409D01*
X112255939Y-109040526D01*
X112319411Y-109011319D01*
X112388598Y-109021065D01*
X112441532Y-109066668D01*
X112454451Y-109093051D01*
X112474211Y-109149523D01*
X112526593Y-109232888D01*
X112570184Y-109302262D01*
X112697738Y-109429816D01*
X112850478Y-109525789D01*
X112983499Y-109572335D01*
X113020745Y-109585368D01*
X113020750Y-109585369D01*
X113199996Y-109605565D01*
X113200000Y-109605565D01*
X113200004Y-109605565D01*
X113379249Y-109585369D01*
X113379250Y-109585368D01*
X113379255Y-109585368D01*
X113459048Y-109557446D01*
X113528823Y-109553884D01*
X113540933Y-109557440D01*
X113620745Y-109585368D01*
X113620749Y-109585368D01*
X113620751Y-109585369D01*
X113620748Y-109585369D01*
X113799996Y-109605565D01*
X113800000Y-109605565D01*
X113800004Y-109605565D01*
X113979249Y-109585369D01*
X113979252Y-109585368D01*
X113979255Y-109585368D01*
X114149522Y-109525789D01*
X114302262Y-109429816D01*
X114429816Y-109302262D01*
X114525789Y-109149522D01*
X114585368Y-108979255D01*
X114588412Y-108952234D01*
X114615476Y-108887824D01*
X114673070Y-108848267D01*
X114724232Y-108842760D01*
X114799991Y-108850500D01*
X115800008Y-108850499D01*
X115800016Y-108850498D01*
X115800019Y-108850498D01*
X115866478Y-108843709D01*
X115902797Y-108839999D01*
X116069334Y-108784814D01*
X116218656Y-108692712D01*
X116242318Y-108669049D01*
X116303637Y-108635566D01*
X116373329Y-108640549D01*
X116395093Y-108651193D01*
X116530659Y-108734810D01*
X116530660Y-108734810D01*
X116530666Y-108734814D01*
X116697203Y-108789999D01*
X116799991Y-108800500D01*
X117650500Y-108800499D01*
X117717539Y-108820183D01*
X117763294Y-108872987D01*
X117774500Y-108924499D01*
X117774500Y-109774903D01*
X117754815Y-109841942D01*
X117738181Y-109862584D01*
X116650084Y-110950681D01*
X116588761Y-110984166D01*
X116562403Y-110987000D01*
X116492508Y-110987000D01*
X116425469Y-110967315D01*
X116386969Y-110928097D01*
X116342712Y-110856344D01*
X116218656Y-110732288D01*
X116088264Y-110651862D01*
X116069336Y-110640187D01*
X116069331Y-110640185D01*
X116067862Y-110639698D01*
X115902797Y-110585001D01*
X115902795Y-110585000D01*
X115800010Y-110574500D01*
X114799998Y-110574500D01*
X114799980Y-110574501D01*
X114697203Y-110585000D01*
X114697200Y-110585001D01*
X114530668Y-110640185D01*
X114530663Y-110640187D01*
X114381342Y-110732289D01*
X114376909Y-110735795D01*
X114312113Y-110761934D01*
X114243471Y-110748892D01*
X114223091Y-110735795D01*
X114218657Y-110732289D01*
X114218656Y-110732288D01*
X114088264Y-110651862D01*
X114069336Y-110640187D01*
X114069331Y-110640185D01*
X114067862Y-110639698D01*
X113902797Y-110585001D01*
X113902795Y-110585000D01*
X113800010Y-110574500D01*
X112799998Y-110574500D01*
X112799980Y-110574501D01*
X112697203Y-110585000D01*
X112697200Y-110585001D01*
X112530668Y-110640185D01*
X112530663Y-110640187D01*
X112381342Y-110732289D01*
X112257289Y-110856342D01*
X112165187Y-111005663D01*
X112165185Y-111005668D01*
X112145463Y-111065185D01*
X112110001Y-111172203D01*
X112110001Y-111172204D01*
X112110000Y-111172204D01*
X112099500Y-111274983D01*
X112099500Y-111900001D01*
X112099501Y-111900019D01*
X112110000Y-112002796D01*
X112110001Y-112002799D01*
X112165185Y-112169331D01*
X112165187Y-112169336D01*
X112257289Y-112318657D01*
X112350951Y-112412319D01*
X112384436Y-112473642D01*
X112379452Y-112543334D01*
X112350951Y-112587681D01*
X112257289Y-112681342D01*
X112165187Y-112830663D01*
X112165186Y-112830666D01*
X112110001Y-112997203D01*
X112110001Y-112997204D01*
X112110000Y-112997204D01*
X112099500Y-113099983D01*
X112099500Y-113712401D01*
X112079815Y-113779440D01*
X112063181Y-113800082D01*
X111600084Y-114263181D01*
X111538761Y-114296666D01*
X111512403Y-114299500D01*
X111438522Y-114299500D01*
X111371483Y-114279815D01*
X111325728Y-114227011D01*
X111315302Y-114189383D01*
X111296660Y-114023928D01*
X111296659Y-114023923D01*
X111284788Y-113989998D01*
X111237080Y-113853656D01*
X111237079Y-113853655D01*
X111237077Y-113853648D01*
X111234060Y-113847383D01*
X111235389Y-113846742D01*
X111218555Y-113787181D01*
X111238920Y-113720345D01*
X111266084Y-113690823D01*
X111269376Y-113688242D01*
X111269388Y-113688236D01*
X111383236Y-113574388D01*
X111466531Y-113436602D01*
X111514430Y-113282887D01*
X111520500Y-113216091D01*
X111520499Y-111608910D01*
X111520499Y-111608901D01*
X111514431Y-111542117D01*
X111514428Y-111542106D01*
X111466532Y-111388401D01*
X111466531Y-111388400D01*
X111466531Y-111388398D01*
X111383236Y-111250612D01*
X111383234Y-111250610D01*
X111383233Y-111250608D01*
X111269391Y-111136766D01*
X111265849Y-111134625D01*
X111131602Y-111053469D01*
X110977887Y-111005570D01*
X110977885Y-111005569D01*
X110977883Y-111005569D01*
X110931117Y-111001319D01*
X110911091Y-110999500D01*
X110911088Y-110999500D01*
X110478901Y-110999500D01*
X110412117Y-111005568D01*
X110412106Y-111005571D01*
X110258400Y-111053467D01*
X110124150Y-111134625D01*
X110056595Y-111152461D01*
X109995850Y-111134625D01*
X109861602Y-111053469D01*
X109861596Y-111053467D01*
X109707887Y-111005570D01*
X109707885Y-111005569D01*
X109707883Y-111005569D01*
X109661117Y-111001319D01*
X109641091Y-110999500D01*
X109641088Y-110999500D01*
X109208901Y-110999500D01*
X109142117Y-111005568D01*
X109142106Y-111005571D01*
X108988400Y-111053467D01*
X108854150Y-111134625D01*
X108786595Y-111152461D01*
X108725850Y-111134625D01*
X108591602Y-111053469D01*
X108591596Y-111053467D01*
X108437887Y-111005570D01*
X108437885Y-111005569D01*
X108437883Y-111005569D01*
X108391117Y-111001319D01*
X108371091Y-110999500D01*
X108371088Y-110999500D01*
X107938901Y-110999500D01*
X107872117Y-111005568D01*
X107872106Y-111005571D01*
X107718400Y-111053467D01*
X107584150Y-111134625D01*
X107516595Y-111152461D01*
X107455850Y-111134625D01*
X107321602Y-111053469D01*
X107321596Y-111053467D01*
X107167887Y-111005570D01*
X107167885Y-111005569D01*
X107167883Y-111005569D01*
X107121117Y-111001319D01*
X107101091Y-110999500D01*
X107101088Y-110999500D01*
X106668901Y-110999500D01*
X106602117Y-111005568D01*
X106602106Y-111005571D01*
X106448400Y-111053467D01*
X106314150Y-111134625D01*
X106246595Y-111152461D01*
X106185850Y-111134625D01*
X106051602Y-111053469D01*
X106051596Y-111053467D01*
X105897887Y-111005570D01*
X105897885Y-111005569D01*
X105897883Y-111005569D01*
X105851117Y-111001319D01*
X105831091Y-110999500D01*
X105831088Y-110999500D01*
X105398901Y-110999500D01*
X105332117Y-111005568D01*
X105332106Y-111005571D01*
X105178400Y-111053467D01*
X105044150Y-111134625D01*
X104976595Y-111152461D01*
X104915850Y-111134625D01*
X104781602Y-111053469D01*
X104781596Y-111053467D01*
X104627887Y-111005570D01*
X104627885Y-111005569D01*
X104627883Y-111005569D01*
X104581117Y-111001319D01*
X104561091Y-110999500D01*
X104561088Y-110999500D01*
X104128901Y-110999500D01*
X104062117Y-111005568D01*
X104062106Y-111005571D01*
X103908400Y-111053467D01*
X103774150Y-111134625D01*
X103706595Y-111152461D01*
X103645850Y-111134625D01*
X103511602Y-111053469D01*
X103511596Y-111053467D01*
X103357887Y-111005570D01*
X103357885Y-111005569D01*
X103357883Y-111005569D01*
X103311117Y-111001319D01*
X103291091Y-110999500D01*
X103291088Y-110999500D01*
X103100097Y-110999500D01*
X103033058Y-110979815D01*
X103012416Y-110963181D01*
X102336819Y-110287584D01*
X102303334Y-110226261D01*
X102300500Y-110199903D01*
X102300500Y-109952243D01*
X102320185Y-109885204D01*
X102372989Y-109839449D01*
X102437756Y-109828954D01*
X102452127Y-109830500D01*
X105547872Y-109830499D01*
X105607483Y-109824091D01*
X105742331Y-109773796D01*
X105857546Y-109687546D01*
X105943796Y-109572331D01*
X105994091Y-109437483D01*
X106000500Y-109377873D01*
X106000500Y-108954500D01*
X106020185Y-108887461D01*
X106072989Y-108841706D01*
X106124500Y-108830500D01*
X108105721Y-108830500D01*
X108108863Y-108830540D01*
X108196358Y-108832757D01*
X108196358Y-108832756D01*
X108196363Y-108832757D01*
X108254425Y-108822349D01*
X108263754Y-108821041D01*
X108322438Y-108815074D01*
X108351471Y-108805964D01*
X108366700Y-108802226D01*
X108396653Y-108796858D01*
X108396657Y-108796856D01*
X108396659Y-108796856D01*
X108451423Y-108774980D01*
X108460292Y-108771821D01*
X108516588Y-108754159D01*
X108543200Y-108739387D01*
X108557362Y-108732662D01*
X108585617Y-108721377D01*
X108634879Y-108688909D01*
X108642910Y-108684043D01*
X108694502Y-108655409D01*
X108694509Y-108655402D01*
X108694512Y-108655401D01*
X108717583Y-108635594D01*
X108730125Y-108626137D01*
X108755519Y-108609402D01*
X108797237Y-108567682D01*
X108804122Y-108561301D01*
X108848895Y-108522866D01*
X108867520Y-108498802D01*
X108877880Y-108487039D01*
X109628102Y-107736819D01*
X109689425Y-107703334D01*
X109715783Y-107700500D01*
X110589424Y-107700500D01*
X110656463Y-107720185D01*
G37*
G04 #@! TD.AperFunction*
G04 #@! TA.AperFunction,Conductor*
G36*
X119017996Y-102437192D02*
G01*
X119047031Y-102458766D01*
X120263181Y-103674916D01*
X120296666Y-103736239D01*
X120299500Y-103762596D01*
X120299500Y-104000000D01*
X120299501Y-104000019D01*
X120310000Y-104102796D01*
X120310001Y-104102799D01*
X120365185Y-104269331D01*
X120365187Y-104269336D01*
X120379681Y-104292835D01*
X120436481Y-104384923D01*
X120457289Y-104418657D01*
X120550951Y-104512319D01*
X120584436Y-104573642D01*
X120579452Y-104643334D01*
X120550951Y-104687681D01*
X120457289Y-104781342D01*
X120365187Y-104930663D01*
X120365185Y-104930668D01*
X120348393Y-104981344D01*
X120310001Y-105097203D01*
X120310001Y-105097204D01*
X120310000Y-105097204D01*
X120299500Y-105199983D01*
X120299500Y-105825001D01*
X120299501Y-105825019D01*
X120310000Y-105927796D01*
X120310001Y-105927799D01*
X120361326Y-106082685D01*
X120365186Y-106094334D01*
X120365188Y-106094338D01*
X120365190Y-106094341D01*
X120375556Y-106111148D01*
X120393994Y-106178540D01*
X120373069Y-106245203D01*
X120319426Y-106289971D01*
X120279743Y-106299859D01*
X120247432Y-106302401D01*
X120247426Y-106302402D01*
X120089606Y-106348254D01*
X120089603Y-106348255D01*
X119948137Y-106431917D01*
X119948129Y-106431923D01*
X119831923Y-106548129D01*
X119831917Y-106548137D01*
X119748255Y-106689603D01*
X119748254Y-106689606D01*
X119702402Y-106847426D01*
X119702401Y-106847432D01*
X119699500Y-106884298D01*
X119699500Y-107574643D01*
X119698720Y-107588527D01*
X119681935Y-107737497D01*
X119681935Y-107737502D01*
X119698720Y-107886471D01*
X119699500Y-107900355D01*
X119699500Y-108040701D01*
X119702401Y-108077567D01*
X119702402Y-108077573D01*
X119748254Y-108235393D01*
X119748255Y-108235396D01*
X119835890Y-108383580D01*
X119834071Y-108384655D01*
X119855619Y-108439532D01*
X119841941Y-108508050D01*
X119793391Y-108558296D01*
X119732105Y-108574500D01*
X119334298Y-108574500D01*
X119297432Y-108577401D01*
X119297426Y-108577402D01*
X119134095Y-108624855D01*
X119064225Y-108624656D01*
X119005555Y-108586714D01*
X118976712Y-108523075D01*
X118975500Y-108505779D01*
X118975500Y-106034987D01*
X118976561Y-106018801D01*
X118980682Y-105987499D01*
X118980682Y-105987498D01*
X118960044Y-105830739D01*
X118960044Y-105830738D01*
X118899536Y-105684659D01*
X118827450Y-105590714D01*
X118826122Y-105588983D01*
X118800929Y-105523813D01*
X118800499Y-105513497D01*
X118800499Y-104899998D01*
X118800498Y-104899981D01*
X118789999Y-104797203D01*
X118789998Y-104797200D01*
X118761268Y-104710499D01*
X118734814Y-104630666D01*
X118642712Y-104481344D01*
X118546850Y-104385482D01*
X118513365Y-104324159D01*
X118515455Y-104263206D01*
X118547597Y-104152573D01*
X118547598Y-104152567D01*
X118550499Y-104115701D01*
X118550500Y-104115694D01*
X118550500Y-102959306D01*
X118547598Y-102922431D01*
X118542924Y-102906344D01*
X118501745Y-102764606D01*
X118501744Y-102764603D01*
X118501744Y-102764602D01*
X118418081Y-102623135D01*
X118414110Y-102616420D01*
X118415928Y-102615344D01*
X118394381Y-102560468D01*
X118408059Y-102491950D01*
X118456609Y-102441704D01*
X118517895Y-102425500D01*
X118915686Y-102425500D01*
X118915694Y-102425500D01*
X118949622Y-102422829D01*
X119017996Y-102437192D01*
G37*
G04 #@! TD.AperFunction*
G04 #@! TA.AperFunction,Conductor*
G36*
X104004839Y-100520095D02*
G01*
X104035536Y-100503334D01*
X104061894Y-100500500D01*
X110583224Y-100500500D01*
X110650263Y-100520185D01*
X110696018Y-100572989D01*
X110705962Y-100642147D01*
X110676937Y-100705703D01*
X110670905Y-100712181D01*
X110599289Y-100783796D01*
X110599282Y-100783805D01*
X110520446Y-100917111D01*
X110520445Y-100917113D01*
X110513695Y-100940348D01*
X110477234Y-101065847D01*
X110477234Y-101065849D01*
X110474500Y-101100589D01*
X110474500Y-101599393D01*
X110474501Y-101599415D01*
X110477234Y-101634152D01*
X110477234Y-101634155D01*
X110477235Y-101634156D01*
X110520445Y-101782887D01*
X110542834Y-101820745D01*
X110599282Y-101916194D01*
X110599284Y-101916197D01*
X110599285Y-101916198D01*
X110708802Y-102025715D01*
X110708804Y-102025716D01*
X110708805Y-102025717D01*
X110708888Y-102025766D01*
X110733451Y-102044819D01*
X110746692Y-102058060D01*
X110769356Y-102094129D01*
X110771188Y-102093247D01*
X110774207Y-102099516D01*
X110774211Y-102099522D01*
X110845562Y-102213077D01*
X110873889Y-102258158D01*
X110871590Y-102259602D01*
X110893341Y-102312849D01*
X110880599Y-102381547D01*
X110832739Y-102432450D01*
X110769988Y-102449500D01*
X109715783Y-102449500D01*
X109648744Y-102429815D01*
X109628102Y-102413181D01*
X109267566Y-102052646D01*
X109265373Y-102050397D01*
X109205061Y-101986949D01*
X109205060Y-101986948D01*
X109205059Y-101986947D01*
X109156640Y-101953246D01*
X109149120Y-101947575D01*
X109103413Y-101910305D01*
X109103406Y-101910301D01*
X109076441Y-101896216D01*
X109063026Y-101888089D01*
X109038049Y-101870705D01*
X109038046Y-101870703D01*
X109038045Y-101870703D01*
X109038041Y-101870701D01*
X108983845Y-101847443D01*
X108975336Y-101843402D01*
X108923057Y-101816094D01*
X108923046Y-101816090D01*
X108893806Y-101807723D01*
X108879021Y-101802459D01*
X108851058Y-101790459D01*
X108793273Y-101778583D01*
X108784127Y-101776338D01*
X108727423Y-101760113D01*
X108703699Y-101758306D01*
X108697072Y-101757801D01*
X108681533Y-101755622D01*
X108651742Y-101749500D01*
X108651741Y-101749500D01*
X108592759Y-101749500D01*
X108583344Y-101749142D01*
X108580643Y-101748936D01*
X108524524Y-101744662D01*
X108494349Y-101748506D01*
X108478682Y-101749500D01*
X105806565Y-101749500D01*
X105739526Y-101729815D01*
X105697732Y-101684925D01*
X105687229Y-101665690D01*
X105687224Y-101665682D01*
X105515745Y-101436612D01*
X105515729Y-101436594D01*
X105313405Y-101234270D01*
X105313387Y-101234254D01*
X105084317Y-101062775D01*
X105084309Y-101062770D01*
X104833166Y-100925635D01*
X104833167Y-100925635D01*
X104718598Y-100882903D01*
X104565046Y-100825631D01*
X104565043Y-100825630D01*
X104565037Y-100825628D01*
X104285433Y-100764804D01*
X104053048Y-100748184D01*
X103997788Y-100727573D01*
X103973041Y-100743477D01*
X103946952Y-100748184D01*
X103714566Y-100764804D01*
X103434962Y-100825628D01*
X103166833Y-100925635D01*
X102915690Y-101062770D01*
X102915682Y-101062775D01*
X102686612Y-101234254D01*
X102686594Y-101234270D01*
X102484270Y-101436594D01*
X102484254Y-101436612D01*
X102312775Y-101665682D01*
X102312770Y-101665690D01*
X102175635Y-101916833D01*
X102075628Y-102184962D01*
X102014804Y-102464566D01*
X101994390Y-102749998D01*
X101994390Y-102750001D01*
X102014804Y-103035433D01*
X102075628Y-103315037D01*
X102075630Y-103315043D01*
X102075631Y-103315046D01*
X102097990Y-103374992D01*
X102175635Y-103583166D01*
X102312770Y-103834309D01*
X102312775Y-103834317D01*
X102391618Y-103939639D01*
X102416035Y-104005103D01*
X102401183Y-104073376D01*
X102353822Y-104120736D01*
X102354204Y-104121396D01*
X102347162Y-104125462D01*
X102221718Y-104221716D01*
X102202489Y-104246775D01*
X102191798Y-104258965D01*
X100712181Y-105738583D01*
X100650858Y-105772068D01*
X100581166Y-105767084D01*
X100525233Y-105725212D01*
X100500816Y-105659748D01*
X100500500Y-105650902D01*
X100500500Y-100624500D01*
X100520185Y-100557461D01*
X100572989Y-100511706D01*
X100624500Y-100500500D01*
X103938106Y-100500500D01*
X104004839Y-100520095D01*
G37*
G04 #@! TD.AperFunction*
G04 #@! TA.AperFunction,Conductor*
G36*
X113557166Y-107817681D02*
G01*
X113593417Y-107839441D01*
X113657831Y-107866508D01*
X113797055Y-107902801D01*
X113836635Y-107907261D01*
X113882922Y-107910335D01*
X113905653Y-107910799D01*
X113952032Y-107909616D01*
X113952038Y-107909614D01*
X113957853Y-107908915D01*
X113958090Y-107910887D01*
X114018819Y-107915224D01*
X114074758Y-107957088D01*
X114099183Y-108022549D01*
X114099500Y-108031410D01*
X114099500Y-108150000D01*
X114099501Y-108150019D01*
X114110000Y-108252796D01*
X114110001Y-108252799D01*
X114165185Y-108419331D01*
X114165189Y-108419340D01*
X114172895Y-108431833D01*
X114181537Y-108445844D01*
X114200000Y-108510941D01*
X114200000Y-108573420D01*
X114182319Y-108637235D01*
X114149442Y-108692008D01*
X114123962Y-108752650D01*
X114123046Y-108754644D01*
X114122379Y-108756418D01*
X114107862Y-108812110D01*
X114104914Y-108821785D01*
X114072081Y-108915618D01*
X114060032Y-108940636D01*
X114039529Y-108973266D01*
X114022217Y-108994975D01*
X113994975Y-109022217D01*
X113973267Y-109039529D01*
X113940634Y-109060034D01*
X113915616Y-109072082D01*
X113879245Y-109084809D01*
X113852175Y-109090987D01*
X113813885Y-109095302D01*
X113786125Y-109095302D01*
X113747827Y-109090988D01*
X113720755Y-109084809D01*
X113707892Y-109080308D01*
X113692996Y-109075518D01*
X113683360Y-109072419D01*
X113679319Y-109071232D01*
X113671246Y-109068862D01*
X113649993Y-109063206D01*
X113646330Y-109062231D01*
X113646327Y-109062230D01*
X113646325Y-109062230D01*
X113606755Y-109058587D01*
X113503048Y-109049040D01*
X113433273Y-109052603D01*
X113432146Y-109052771D01*
X113430150Y-109053216D01*
X113292089Y-109080313D01*
X113279227Y-109084813D01*
X113252165Y-109090988D01*
X113213887Y-109095301D01*
X113186121Y-109095301D01*
X113151051Y-109091350D01*
X113110572Y-109078031D01*
X113110348Y-109078573D01*
X113103122Y-109075580D01*
X113102934Y-109075518D01*
X113102843Y-109075465D01*
X113102841Y-109075464D01*
X113102838Y-109075462D01*
X113102835Y-109075461D01*
X113056979Y-109056466D01*
X113038460Y-109046899D01*
X113026731Y-109039529D01*
X113005023Y-109022217D01*
X112977780Y-108994974D01*
X112960468Y-108973266D01*
X112938544Y-108938375D01*
X112929132Y-108920230D01*
X112915751Y-108888223D01*
X112908444Y-108870744D01*
X112895525Y-108844361D01*
X112866002Y-108792158D01*
X112865996Y-108792151D01*
X112830520Y-108751445D01*
X112801313Y-108687973D01*
X112800000Y-108669975D01*
X112800000Y-107924000D01*
X112819685Y-107856961D01*
X112872489Y-107811206D01*
X112924000Y-107800000D01*
X113493350Y-107800000D01*
X113557166Y-107817681D01*
G37*
G04 #@! TD.AperFunction*
M02*
