G04 #@! TF.GenerationSoftware,KiCad,Pcbnew,7.0.11+dfsg-1build4*
G04 #@! TF.CreationDate,2025-07-05T19:07:05+02:00*
G04 #@! TF.ProjectId,25487,32353438-372e-46b6-9963-61645f706362,rev?*
G04 #@! TF.SameCoordinates,Original*
G04 #@! TF.FileFunction,Copper,L2,Bot*
G04 #@! TF.FilePolarity,Positive*
%FSLAX46Y46*%
G04 Gerber Fmt 4.6, Leading zero omitted, Abs format (unit mm)*
G04 Created by KiCad (PCBNEW 7.0.11+dfsg-1build4) date 2025-07-05 19:07:05*
%MOMM*%
%LPD*%
G01*
G04 APERTURE LIST*
G04 Aperture macros list*
%AMRoundRect*
0 Rectangle with rounded corners*
0 $1 Rounding radius*
0 $2 $3 $4 $5 $6 $7 $8 $9 X,Y pos of 4 corners*
0 Add a 4 corners polygon primitive as box body*
4,1,4,$2,$3,$4,$5,$6,$7,$8,$9,$2,$3,0*
0 Add four circle primitives for the rounded corners*
1,1,$1+$1,$2,$3*
1,1,$1+$1,$4,$5*
1,1,$1+$1,$6,$7*
1,1,$1+$1,$8,$9*
0 Add four rect primitives between the rounded corners*
20,1,$1+$1,$2,$3,$4,$5,0*
20,1,$1+$1,$4,$5,$6,$7,0*
20,1,$1+$1,$6,$7,$8,$9,0*
20,1,$1+$1,$8,$9,$2,$3,0*%
G04 Aperture macros list end*
G04 #@! TA.AperFunction,ComponentPad*
%ADD10R,1.700000X1.700000*%
G04 #@! TD*
G04 #@! TA.AperFunction,ComponentPad*
%ADD11O,1.700000X1.700000*%
G04 #@! TD*
G04 #@! TA.AperFunction,ComponentPad*
%ADD12R,3.000000X3.000000*%
G04 #@! TD*
G04 #@! TA.AperFunction,ComponentPad*
%ADD13C,3.000000*%
G04 #@! TD*
G04 #@! TA.AperFunction,SMDPad,CuDef*
%ADD14RoundRect,0.243750X0.456250X-0.243750X0.456250X0.243750X-0.456250X0.243750X-0.456250X-0.243750X0*%
G04 #@! TD*
G04 #@! TA.AperFunction,SMDPad,CuDef*
%ADD15RoundRect,0.250000X0.262500X0.450000X-0.262500X0.450000X-0.262500X-0.450000X0.262500X-0.450000X0*%
G04 #@! TD*
G04 #@! TA.AperFunction,SMDPad,CuDef*
%ADD16RoundRect,0.250000X-0.250000X-0.475000X0.250000X-0.475000X0.250000X0.475000X-0.250000X0.475000X0*%
G04 #@! TD*
G04 #@! TA.AperFunction,SMDPad,CuDef*
%ADD17RoundRect,0.250000X0.450000X-0.262500X0.450000X0.262500X-0.450000X0.262500X-0.450000X-0.262500X0*%
G04 #@! TD*
G04 #@! TA.AperFunction,SMDPad,CuDef*
%ADD18RoundRect,0.375000X-0.625000X-0.375000X0.625000X-0.375000X0.625000X0.375000X-0.625000X0.375000X0*%
G04 #@! TD*
G04 #@! TA.AperFunction,SMDPad,CuDef*
%ADD19RoundRect,0.500000X-0.500000X-1.400000X0.500000X-1.400000X0.500000X1.400000X-0.500000X1.400000X0*%
G04 #@! TD*
G04 #@! TA.AperFunction,SMDPad,CuDef*
%ADD20RoundRect,0.250000X-0.450000X0.262500X-0.450000X-0.262500X0.450000X-0.262500X0.450000X0.262500X0*%
G04 #@! TD*
G04 #@! TA.AperFunction,SMDPad,CuDef*
%ADD21RoundRect,0.250000X0.850000X0.350000X-0.850000X0.350000X-0.850000X-0.350000X0.850000X-0.350000X0*%
G04 #@! TD*
G04 #@! TA.AperFunction,SMDPad,CuDef*
%ADD22RoundRect,0.250000X1.275000X1.125000X-1.275000X1.125000X-1.275000X-1.125000X1.275000X-1.125000X0*%
G04 #@! TD*
G04 #@! TA.AperFunction,SMDPad,CuDef*
%ADD23RoundRect,0.249997X2.950003X2.650003X-2.950003X2.650003X-2.950003X-2.650003X2.950003X-2.650003X0*%
G04 #@! TD*
G04 #@! TA.AperFunction,SMDPad,CuDef*
%ADD24RoundRect,0.250000X0.250000X0.475000X-0.250000X0.475000X-0.250000X-0.475000X0.250000X-0.475000X0*%
G04 #@! TD*
G04 #@! TA.AperFunction,ViaPad*
%ADD25C,0.600000*%
G04 #@! TD*
G04 #@! TA.AperFunction,Conductor*
%ADD26C,0.500000*%
G04 #@! TD*
G04 #@! TA.AperFunction,Conductor*
%ADD27C,0.200000*%
G04 #@! TD*
G04 #@! TA.AperFunction,Conductor*
%ADD28C,1.000000*%
G04 #@! TD*
G04 APERTURE END LIST*
D10*
X121300000Y-118000000D03*
D11*
X118760000Y-118000000D03*
X116220000Y-118000000D03*
X113680000Y-118000000D03*
D12*
X104000000Y-107830000D03*
D13*
X104000000Y-102750000D03*
D12*
X126500000Y-102710000D03*
D13*
X126500000Y-107790000D03*
D14*
X108900000Y-104437500D03*
X108900000Y-102562500D03*
D15*
X127312500Y-111200000D03*
X125487500Y-111200000D03*
D16*
X125450000Y-113200000D03*
X127350000Y-113200000D03*
D17*
X127750000Y-118412500D03*
X127750000Y-116587500D03*
D18*
X101600000Y-117550000D03*
X101600000Y-115250000D03*
D19*
X107900000Y-115250000D03*
D18*
X101600000Y-112950000D03*
D17*
X125500000Y-118412500D03*
X125500000Y-116587500D03*
D20*
X108900000Y-106337500D03*
X108900000Y-108162500D03*
D21*
X121700000Y-101472500D03*
D22*
X117075000Y-105277500D03*
X117075000Y-102227500D03*
D23*
X115400000Y-103752500D03*
D22*
X113725000Y-105277500D03*
X113725000Y-102227500D03*
D21*
X121700000Y-106032500D03*
X121750000Y-109000000D03*
D22*
X117125000Y-112805000D03*
X117125000Y-109755000D03*
D23*
X115450000Y-111280000D03*
D22*
X113775000Y-112805000D03*
X113775000Y-109755000D03*
D21*
X121750000Y-113560000D03*
D16*
X108800000Y-110500000D03*
X110700000Y-110500000D03*
D24*
X103050000Y-110600000D03*
X101150000Y-110600000D03*
D25*
X120000000Y-112600000D03*
X127750000Y-115250000D03*
X106500000Y-110100000D03*
X111750000Y-112250000D03*
X123600000Y-112500000D03*
X128750000Y-103000000D03*
X128750000Y-103750000D03*
X107200000Y-110100000D03*
X107200000Y-110800000D03*
X129500000Y-103750000D03*
X122900000Y-104575000D03*
X120250000Y-104575000D03*
X110250000Y-101750000D03*
X127750000Y-114500000D03*
X128500000Y-115250000D03*
X103700000Y-114200000D03*
X106200000Y-114000000D03*
X101750000Y-116750000D03*
X128500000Y-114500000D03*
X106500000Y-110800000D03*
X129500000Y-103000000D03*
X109600000Y-114000000D03*
X111500000Y-101750000D03*
X121450000Y-110100000D03*
X111500000Y-108000000D03*
X108100000Y-119150000D03*
X107900000Y-116800000D03*
X113800000Y-108800000D03*
X113799997Y-108200000D03*
X113200000Y-108200000D03*
X113200000Y-108800000D03*
X110695000Y-112412500D03*
X110511291Y-114203178D03*
X120487500Y-107737500D03*
X116700000Y-103500000D03*
X116700000Y-101250000D03*
X116700000Y-102000000D03*
X116700000Y-102750000D03*
X122203611Y-114660000D03*
X125500000Y-116587500D03*
X105615000Y-112412500D03*
D26*
X120000000Y-112250000D02*
X120000000Y-112600000D01*
X112423122Y-114850000D02*
X117450000Y-114850000D01*
X110250000Y-101750000D02*
X110750000Y-102250000D01*
X110750000Y-102250000D02*
X110750000Y-111250000D01*
X110750000Y-111250000D02*
X111750000Y-112250000D01*
X109600000Y-114000000D02*
X109600000Y-113800000D01*
D27*
X111500000Y-112250000D02*
X111750000Y-112250000D01*
D26*
X117450000Y-114850000D02*
X117700000Y-115100000D01*
X120250000Y-104575000D02*
X122900000Y-104575000D01*
X119750000Y-112000000D02*
X120000000Y-112250000D01*
X111750000Y-112250000D02*
X111750000Y-114176878D01*
D27*
X113680000Y-118000000D02*
X113680000Y-117970256D01*
D26*
X110250000Y-115250000D02*
X109750000Y-114750000D01*
X109750000Y-114750000D02*
X109750000Y-114039336D01*
X109750000Y-114039336D02*
X109789336Y-114000000D01*
X109789336Y-114000000D02*
X109600000Y-114000000D01*
X111750000Y-114176878D02*
X112423122Y-114850000D01*
X107200000Y-101800000D02*
X107200000Y-103800000D01*
X111500000Y-101750000D02*
X110500000Y-100750000D01*
X101150000Y-106600000D02*
X101150000Y-110600000D01*
D27*
X120826471Y-110100000D02*
X121450000Y-110100000D01*
D26*
X101600000Y-112950000D02*
X101200000Y-112550000D01*
X105900000Y-105100000D02*
X102650000Y-105100000D01*
X111500000Y-101750000D02*
X111500000Y-108000000D01*
X101150000Y-112500000D02*
X101600000Y-112950000D01*
D27*
X118026471Y-107300000D02*
X120826471Y-110100000D01*
D26*
X107200000Y-103800000D02*
X105900000Y-105100000D01*
X108250000Y-100750000D02*
X107200000Y-101800000D01*
D27*
X111500000Y-107400000D02*
X111600000Y-107300000D01*
D26*
X102650000Y-105100000D02*
X101150000Y-106600000D01*
X110500000Y-100750000D02*
X108250000Y-100750000D01*
D27*
X111500000Y-108000000D02*
X111500000Y-107400000D01*
X101600000Y-112950000D02*
X101600000Y-113000000D01*
D26*
X101150000Y-110600000D02*
X101150000Y-112500000D01*
D27*
X111600000Y-107300000D02*
X118026471Y-107300000D01*
D26*
X107900000Y-112700000D02*
X107900000Y-115250000D01*
D27*
X127750000Y-118412500D02*
X121712500Y-118412500D01*
D26*
X108800000Y-111800000D02*
X107900000Y-112700000D01*
D27*
X109900000Y-109400000D02*
X108800000Y-110500000D01*
X109900000Y-103562500D02*
X109900000Y-109400000D01*
D26*
X108700000Y-116050000D02*
X107900000Y-115250000D01*
D27*
X120000000Y-119300000D02*
X108250000Y-119300000D01*
X121300000Y-118000000D02*
X120000000Y-119300000D01*
X121712500Y-118412500D02*
X121300000Y-118000000D01*
D26*
X107900000Y-115250000D02*
X101600000Y-115250000D01*
X108800000Y-110500000D02*
X108800000Y-111800000D01*
D27*
X108100000Y-119150000D02*
X107950000Y-119300000D01*
X108250000Y-119300000D02*
X108100000Y-119150000D01*
X108900000Y-102562500D02*
X109900000Y-103562500D01*
X108900000Y-104437500D02*
X108900000Y-106337500D01*
X112100000Y-115400000D02*
X116160000Y-115400000D01*
X110695000Y-113296474D02*
X111111291Y-113712765D01*
X116160000Y-115400000D02*
X118760000Y-118000000D01*
X111111291Y-113712765D02*
X111111291Y-114411291D01*
X111111291Y-114411291D02*
X112100000Y-115400000D01*
X110695000Y-112412500D02*
X110695000Y-113296474D01*
X110511291Y-114203178D02*
X110511291Y-114711291D01*
X115785254Y-118000000D02*
X116220000Y-118000000D01*
X110511291Y-114711291D02*
X111700000Y-115900000D01*
X113685254Y-115900000D02*
X115785254Y-118000000D01*
X111700000Y-115900000D02*
X113685254Y-115900000D01*
D28*
X122927500Y-106032500D02*
X126250000Y-102710000D01*
X121700000Y-106032500D02*
X122927500Y-106032500D01*
X126250000Y-107790000D02*
X121750000Y-112290000D01*
X121750000Y-112290000D02*
X121750000Y-113560000D01*
D27*
X119475000Y-103697500D02*
X121700000Y-101472500D01*
X127212500Y-113162500D02*
X127250000Y-113200000D01*
X127212500Y-110375000D02*
X127212500Y-111200000D01*
X128800000Y-106500000D02*
X127700000Y-105400000D01*
X127700000Y-105400000D02*
X125350000Y-105400000D01*
X127212500Y-111200000D02*
X127212500Y-113162500D01*
X119475000Y-106725000D02*
X119475000Y-103697500D01*
X128800000Y-108787500D02*
X127212500Y-110375000D01*
X120487500Y-107737500D02*
X119475000Y-106725000D01*
X125350000Y-105400000D02*
X121750000Y-109000000D01*
X128800000Y-108787500D02*
X128800000Y-106500000D01*
X120487500Y-107737500D02*
X121750000Y-109000000D01*
D26*
X117302500Y-102000000D02*
X117075000Y-102227500D01*
X118250000Y-102000000D02*
X117302500Y-102000000D01*
D27*
X122203611Y-114703611D02*
X123100000Y-115600000D01*
X122203611Y-114660000D02*
X122203611Y-114703611D01*
X126762500Y-115600000D02*
X127750000Y-116587500D01*
X123100000Y-115600000D02*
X126762500Y-115600000D01*
X105615000Y-109985000D02*
X107437500Y-108162500D01*
X105615000Y-112412500D02*
X105615000Y-109985000D01*
X107437500Y-108162500D02*
X108900000Y-108162500D01*
G04 #@! TA.AperFunction,Conductor*
G36*
X116943039Y-100819685D02*
G01*
X116988794Y-100872489D01*
X117000000Y-100924000D01*
X117000000Y-104526000D01*
X116980315Y-104593039D01*
X116927511Y-104638794D01*
X116876000Y-104650000D01*
X114624000Y-104650000D01*
X114556961Y-104630315D01*
X114511206Y-104577511D01*
X114500000Y-104526000D01*
X114500000Y-100924000D01*
X114519685Y-100856961D01*
X114572489Y-100811206D01*
X114624000Y-100800000D01*
X116876000Y-100800000D01*
X116943039Y-100819685D01*
G37*
G04 #@! TD.AperFunction*
G04 #@! TA.AperFunction,Conductor*
G36*
X110705703Y-108203401D02*
G01*
X110741542Y-108256160D01*
X110774210Y-108349521D01*
X110800315Y-108391066D01*
X110870184Y-108502262D01*
X110997738Y-108629816D01*
X111150478Y-108725789D01*
X111256821Y-108763000D01*
X111320745Y-108785368D01*
X111320750Y-108785369D01*
X111499996Y-108805565D01*
X111500000Y-108805565D01*
X111500003Y-108805565D01*
X111611616Y-108792989D01*
X111680438Y-108805043D01*
X111731818Y-108852392D01*
X111749500Y-108916209D01*
X111749500Y-113195047D01*
X111729815Y-113262086D01*
X111677011Y-113307841D01*
X111607853Y-113317785D01*
X111544297Y-113288760D01*
X111540313Y-113285050D01*
X111514519Y-113265258D01*
X111502325Y-113254564D01*
X111331819Y-113084058D01*
X111298334Y-113022735D01*
X111295500Y-112996377D01*
X111295500Y-112994912D01*
X111315185Y-112927873D01*
X111322555Y-112917597D01*
X111324810Y-112914767D01*
X111324816Y-112914762D01*
X111420789Y-112762022D01*
X111480368Y-112591755D01*
X111482571Y-112572203D01*
X111500565Y-112412503D01*
X111500565Y-112412496D01*
X111480369Y-112233250D01*
X111480368Y-112233245D01*
X111445213Y-112132779D01*
X111420789Y-112062978D01*
X111416316Y-112055860D01*
X111361950Y-111969336D01*
X111324816Y-111910238D01*
X111197262Y-111782684D01*
X111123909Y-111736593D01*
X111044523Y-111686711D01*
X110874254Y-111627131D01*
X110874249Y-111627130D01*
X110695004Y-111606935D01*
X110694996Y-111606935D01*
X110515750Y-111627130D01*
X110515745Y-111627131D01*
X110345476Y-111686711D01*
X110192737Y-111782684D01*
X110065184Y-111910237D01*
X109969211Y-112062976D01*
X109909631Y-112233245D01*
X109909630Y-112233250D01*
X109889435Y-112412496D01*
X109889435Y-112412503D01*
X109909630Y-112591749D01*
X109909631Y-112591754D01*
X109969211Y-112762023D01*
X110027362Y-112854568D01*
X110056111Y-112900323D01*
X110065185Y-112914763D01*
X110067445Y-112917597D01*
X110068334Y-112919775D01*
X110068889Y-112920658D01*
X110068734Y-112920755D01*
X110093855Y-112982283D01*
X110094500Y-112994912D01*
X110094500Y-113248986D01*
X110093439Y-113265171D01*
X110089318Y-113296472D01*
X110089318Y-113296474D01*
X110094500Y-113335834D01*
X110094500Y-113335835D01*
X110106469Y-113426751D01*
X110095703Y-113495786D01*
X110049505Y-113547928D01*
X110009030Y-113573361D01*
X110009026Y-113573364D01*
X109881475Y-113700915D01*
X109785502Y-113853654D01*
X109725922Y-114023923D01*
X109725921Y-114023928D01*
X109705726Y-114203174D01*
X109705726Y-114203181D01*
X109725921Y-114382427D01*
X109725922Y-114382432D01*
X109785502Y-114552701D01*
X109881475Y-114705440D01*
X109885816Y-114710883D01*
X109883958Y-114712364D01*
X109912102Y-114763905D01*
X109913875Y-114774078D01*
X109926246Y-114868051D01*
X109926247Y-114868053D01*
X109969186Y-114971718D01*
X109986755Y-115014132D01*
X110033816Y-115075463D01*
X110083010Y-115139574D01*
X110108060Y-115158795D01*
X110120255Y-115169490D01*
X111241799Y-116291034D01*
X111252493Y-116303228D01*
X111271715Y-116328279D01*
X111271716Y-116328280D01*
X111271718Y-116328282D01*
X111397159Y-116424536D01*
X111543238Y-116485044D01*
X111621619Y-116495363D01*
X111699999Y-116505682D01*
X111700000Y-116505682D01*
X111731302Y-116501560D01*
X111747487Y-116500500D01*
X113141988Y-116500500D01*
X113209027Y-116520185D01*
X113254782Y-116572989D01*
X113264726Y-116642147D01*
X113235701Y-116705703D01*
X113194393Y-116736882D01*
X113002422Y-116826399D01*
X113002420Y-116826400D01*
X112808926Y-116961886D01*
X112808920Y-116961891D01*
X112641891Y-117128920D01*
X112641886Y-117128926D01*
X112506400Y-117322420D01*
X112506399Y-117322422D01*
X112406570Y-117536507D01*
X112406567Y-117536513D01*
X112349364Y-117749999D01*
X112349364Y-117750000D01*
X113246314Y-117750000D01*
X113220507Y-117790156D01*
X113180000Y-117928111D01*
X113180000Y-118071889D01*
X113220507Y-118209844D01*
X113246314Y-118250000D01*
X112349364Y-118250000D01*
X112406567Y-118463486D01*
X112406570Y-118463492D01*
X112434363Y-118523095D01*
X112444855Y-118592173D01*
X112416335Y-118655957D01*
X112357859Y-118694196D01*
X112321981Y-118699500D01*
X108830810Y-118699500D01*
X108763771Y-118679815D01*
X108733865Y-118652815D01*
X108729816Y-118647738D01*
X108602262Y-118520184D01*
X108449523Y-118424211D01*
X108279254Y-118364631D01*
X108279249Y-118364630D01*
X108100004Y-118344435D01*
X108099996Y-118344435D01*
X107920750Y-118364630D01*
X107920745Y-118364631D01*
X107750476Y-118424211D01*
X107597737Y-118520184D01*
X107470184Y-118647737D01*
X107374211Y-118800476D01*
X107314631Y-118970745D01*
X107314630Y-118970750D01*
X107294435Y-119149996D01*
X107294435Y-119150003D01*
X107314630Y-119329249D01*
X107314632Y-119329257D01*
X107316483Y-119334546D01*
X107320044Y-119404325D01*
X107285315Y-119464952D01*
X107223322Y-119497179D01*
X107199441Y-119499500D01*
X100624500Y-119499500D01*
X100557461Y-119479815D01*
X100511706Y-119427011D01*
X100500500Y-119375500D01*
X100500500Y-116566548D01*
X100520185Y-116499509D01*
X100572989Y-116453754D01*
X100642147Y-116443810D01*
X100667261Y-116450154D01*
X100671297Y-116451636D01*
X100671307Y-116451641D01*
X100856111Y-116497600D01*
X100898877Y-116500500D01*
X102301122Y-116500499D01*
X102343889Y-116497600D01*
X102528693Y-116451641D01*
X102699296Y-116367030D01*
X102847722Y-116247722D01*
X102967030Y-116099296D01*
X102981854Y-116069406D01*
X103029275Y-116018093D01*
X103092942Y-116000500D01*
X106275501Y-116000500D01*
X106342540Y-116020185D01*
X106388295Y-116072989D01*
X106399501Y-116124500D01*
X106399501Y-116708034D01*
X106410113Y-116827415D01*
X106466089Y-117023045D01*
X106466090Y-117023048D01*
X106466091Y-117023049D01*
X106560302Y-117203407D01*
X106560304Y-117203409D01*
X106688890Y-117361109D01*
X106751695Y-117412319D01*
X106846593Y-117489698D01*
X107026951Y-117583909D01*
X107026953Y-117583909D01*
X107026954Y-117583910D01*
X107046355Y-117589461D01*
X107222582Y-117639886D01*
X107341963Y-117650500D01*
X108458036Y-117650499D01*
X108577418Y-117639886D01*
X108773049Y-117583909D01*
X108953407Y-117489698D01*
X109111109Y-117361109D01*
X109239698Y-117203407D01*
X109333909Y-117023049D01*
X109389886Y-116827418D01*
X109400500Y-116708037D01*
X109400499Y-116343202D01*
X109409260Y-116297422D01*
X109429862Y-116245567D01*
X109455289Y-116071977D01*
X109455064Y-116069406D01*
X109439999Y-115897203D01*
X109406793Y-115796994D01*
X109400499Y-115757990D01*
X109400499Y-113791971D01*
X109400499Y-113791964D01*
X109389886Y-113672582D01*
X109333909Y-113476951D01*
X109239698Y-113296593D01*
X109175667Y-113218065D01*
X109111109Y-113138890D01*
X109010928Y-113057204D01*
X108953407Y-113010302D01*
X108953404Y-113010300D01*
X108904480Y-112984744D01*
X108854173Y-112936257D01*
X108838066Y-112868269D01*
X108861273Y-112802366D01*
X108874205Y-112787161D01*
X109285642Y-112375724D01*
X109299257Y-112363958D01*
X109318530Y-112349610D01*
X109350383Y-112311648D01*
X109357671Y-112303694D01*
X109361590Y-112299777D01*
X109363670Y-112297147D01*
X109380811Y-112275467D01*
X109383094Y-112272664D01*
X109400472Y-112251955D01*
X109431302Y-112215214D01*
X109431303Y-112215211D01*
X109435272Y-112209179D01*
X109435323Y-112209212D01*
X109439369Y-112202860D01*
X109439317Y-112202828D01*
X109443105Y-112196683D01*
X109443111Y-112196677D01*
X109474829Y-112128655D01*
X109476369Y-112125476D01*
X109510040Y-112058433D01*
X109510043Y-112058417D01*
X109512510Y-112051644D01*
X109512568Y-112051665D01*
X109515043Y-112044546D01*
X109514985Y-112044527D01*
X109517255Y-112037677D01*
X109527317Y-111988943D01*
X109532431Y-111964171D01*
X109533186Y-111960767D01*
X109550500Y-111887721D01*
X109550500Y-111887719D01*
X109550501Y-111887715D01*
X109551339Y-111880548D01*
X109551397Y-111880554D01*
X109552164Y-111873056D01*
X109552104Y-111873051D01*
X109552733Y-111865860D01*
X109552698Y-111864672D01*
X109550552Y-111790889D01*
X109550500Y-111787283D01*
X109550500Y-111587230D01*
X109570185Y-111520191D01*
X109586819Y-111499549D01*
X109642712Y-111443656D01*
X109734814Y-111294334D01*
X109789999Y-111127797D01*
X109800500Y-111025009D01*
X109800499Y-110400095D01*
X109820183Y-110333057D01*
X109836813Y-110312420D01*
X110291043Y-109858190D01*
X110303223Y-109847509D01*
X110328282Y-109828282D01*
X110424536Y-109702841D01*
X110485044Y-109556762D01*
X110500500Y-109439361D01*
X110505682Y-109400000D01*
X110501561Y-109368697D01*
X110500500Y-109352512D01*
X110500500Y-108297114D01*
X110520185Y-108230075D01*
X110572989Y-108184320D01*
X110642147Y-108174376D01*
X110705703Y-108203401D01*
G37*
G04 #@! TD.AperFunction*
G04 #@! TA.AperFunction,Conductor*
G36*
X129942539Y-100520185D02*
G01*
X129988294Y-100572989D01*
X129999500Y-100624500D01*
X129999500Y-119375500D01*
X129979815Y-119442539D01*
X129927011Y-119488294D01*
X129875500Y-119499500D01*
X128730106Y-119499500D01*
X128663067Y-119479815D01*
X128617312Y-119427011D01*
X128607368Y-119357853D01*
X128636393Y-119294297D01*
X128665006Y-119269962D01*
X128668656Y-119267712D01*
X128792712Y-119143656D01*
X128884814Y-118994334D01*
X128939999Y-118827797D01*
X128950500Y-118725009D01*
X128950499Y-118099992D01*
X128939999Y-117997203D01*
X128884814Y-117830666D01*
X128792712Y-117681344D01*
X128699049Y-117587681D01*
X128665564Y-117526358D01*
X128670548Y-117456666D01*
X128699049Y-117412319D01*
X128792712Y-117318656D01*
X128884814Y-117169334D01*
X128939999Y-117002797D01*
X128950500Y-116900009D01*
X128950499Y-116274992D01*
X128950294Y-116272989D01*
X128939999Y-116172203D01*
X128939998Y-116172200D01*
X128932926Y-116150858D01*
X128884814Y-116005666D01*
X128792712Y-115856344D01*
X128668656Y-115732288D01*
X128519334Y-115640186D01*
X128352797Y-115585001D01*
X128352795Y-115585000D01*
X128250016Y-115574500D01*
X128250009Y-115574500D01*
X127637597Y-115574500D01*
X127570558Y-115554815D01*
X127549916Y-115538181D01*
X127220699Y-115208964D01*
X127210004Y-115196769D01*
X127190783Y-115171719D01*
X127180387Y-115163742D01*
X127065341Y-115075464D01*
X126919262Y-115014956D01*
X126919260Y-115014955D01*
X126854667Y-115006452D01*
X126762501Y-114994318D01*
X126762500Y-114994318D01*
X126731197Y-114998439D01*
X126715013Y-114999500D01*
X123400098Y-114999500D01*
X123333059Y-114979815D01*
X123312417Y-114963181D01*
X123045512Y-114696277D01*
X123012027Y-114634954D01*
X123017011Y-114565263D01*
X123058882Y-114509329D01*
X123068100Y-114503055D01*
X123068150Y-114503023D01*
X123068656Y-114502712D01*
X123192712Y-114378656D01*
X123284814Y-114229334D01*
X123339999Y-114062797D01*
X123350500Y-113960009D01*
X123350499Y-113159992D01*
X123348343Y-113138890D01*
X123339999Y-113057203D01*
X123339998Y-113057200D01*
X123324458Y-113010304D01*
X123284814Y-112890666D01*
X123192712Y-112741344D01*
X123068656Y-112617288D01*
X123068653Y-112617285D01*
X123059238Y-112611478D01*
X123012515Y-112559528D01*
X123001296Y-112490565D01*
X123029142Y-112426484D01*
X123036647Y-112418272D01*
X125737014Y-109717904D01*
X125798335Y-109684421D01*
X125868023Y-109689404D01*
X125911157Y-109705493D01*
X125934956Y-109714370D01*
X126214566Y-109775195D01*
X126214568Y-109775195D01*
X126214572Y-109775196D01*
X126468220Y-109793337D01*
X126499999Y-109795610D01*
X126500000Y-109795610D01*
X126648254Y-109785006D01*
X126716524Y-109799857D01*
X126765930Y-109849262D01*
X126780782Y-109917535D01*
X126756366Y-109983000D01*
X126755476Y-109984174D01*
X126732360Y-110014301D01*
X126732358Y-110014304D01*
X126687959Y-110072164D01*
X126686245Y-110075134D01*
X126683560Y-110077897D01*
X126683017Y-110078606D01*
X126682934Y-110078542D01*
X126643960Y-110118665D01*
X126581344Y-110157287D01*
X126457289Y-110281342D01*
X126365187Y-110430663D01*
X126365185Y-110430668D01*
X126345182Y-110491034D01*
X126310001Y-110597203D01*
X126310001Y-110597204D01*
X126310000Y-110597204D01*
X126299500Y-110699983D01*
X126299500Y-111700001D01*
X126299501Y-111700019D01*
X126310000Y-111802796D01*
X126310001Y-111802799D01*
X126345602Y-111910234D01*
X126365186Y-111969334D01*
X126453538Y-112112577D01*
X126457289Y-112118657D01*
X126471411Y-112132779D01*
X126504896Y-112194102D01*
X126499912Y-112263794D01*
X126489269Y-112285556D01*
X126415189Y-112405659D01*
X126415185Y-112405668D01*
X126399729Y-112452311D01*
X126360001Y-112572203D01*
X126360001Y-112572204D01*
X126360000Y-112572204D01*
X126349500Y-112674983D01*
X126349500Y-113725001D01*
X126349501Y-113725019D01*
X126360000Y-113827796D01*
X126360001Y-113827799D01*
X126415185Y-113994331D01*
X126415187Y-113994336D01*
X126433440Y-114023928D01*
X126507288Y-114143656D01*
X126631344Y-114267712D01*
X126780666Y-114359814D01*
X126947203Y-114414999D01*
X127049991Y-114425500D01*
X127650008Y-114425499D01*
X127650016Y-114425498D01*
X127650019Y-114425498D01*
X127706302Y-114419748D01*
X127752797Y-114414999D01*
X127919334Y-114359814D01*
X128068656Y-114267712D01*
X128192712Y-114143656D01*
X128284814Y-113994334D01*
X128339999Y-113827797D01*
X128350500Y-113725009D01*
X128350499Y-112674992D01*
X128344604Y-112617288D01*
X128339999Y-112572203D01*
X128339998Y-112572200D01*
X128327932Y-112535788D01*
X128284814Y-112405666D01*
X128192712Y-112256344D01*
X128192709Y-112256341D01*
X128188234Y-112250681D01*
X128189626Y-112249579D01*
X128160566Y-112196360D01*
X128165550Y-112126668D01*
X128176190Y-112104909D01*
X128259814Y-111969334D01*
X128314999Y-111802797D01*
X128325500Y-111700009D01*
X128325499Y-110699992D01*
X128314999Y-110597203D01*
X128259814Y-110430666D01*
X128259810Y-110430659D01*
X128214482Y-110357170D01*
X128196042Y-110289778D01*
X128216965Y-110223114D01*
X128232335Y-110204398D01*
X129191043Y-109245690D01*
X129203223Y-109235009D01*
X129228282Y-109215782D01*
X129324536Y-109090341D01*
X129385044Y-108944262D01*
X129400500Y-108826861D01*
X129405682Y-108787500D01*
X129405401Y-108785369D01*
X129401561Y-108756197D01*
X129400500Y-108740012D01*
X129400500Y-106547487D01*
X129401561Y-106531301D01*
X129405682Y-106499999D01*
X129405682Y-106499998D01*
X129385044Y-106343239D01*
X129385042Y-106343234D01*
X129324538Y-106197163D01*
X129324537Y-106197162D01*
X129324536Y-106197159D01*
X129315041Y-106184785D01*
X129228282Y-106071718D01*
X129220510Y-106065754D01*
X129203228Y-106052493D01*
X129191034Y-106041799D01*
X128158199Y-105008964D01*
X128147504Y-104996769D01*
X128128282Y-104971718D01*
X128063926Y-104922336D01*
X128022724Y-104865909D01*
X128018569Y-104796163D01*
X128052781Y-104735243D01*
X128100944Y-104708758D01*
X128100215Y-104706802D01*
X128242328Y-104653797D01*
X128242327Y-104653797D01*
X128242331Y-104653796D01*
X128357546Y-104567546D01*
X128443796Y-104452331D01*
X128494091Y-104317483D01*
X128500500Y-104257873D01*
X128500499Y-101162128D01*
X128494091Y-101102517D01*
X128482892Y-101072492D01*
X128443797Y-100967671D01*
X128443793Y-100967664D01*
X128357547Y-100852455D01*
X128357544Y-100852452D01*
X128242335Y-100766206D01*
X128242328Y-100766202D01*
X128173904Y-100740682D01*
X128117970Y-100698811D01*
X128093553Y-100633347D01*
X128108405Y-100565074D01*
X128157810Y-100515668D01*
X128217237Y-100500500D01*
X129875500Y-100500500D01*
X129942539Y-100520185D01*
G37*
G04 #@! TD.AperFunction*
G04 #@! TA.AperFunction,Conductor*
G36*
X119355703Y-109478913D02*
G01*
X119362181Y-109484945D01*
X120368270Y-110491034D01*
X120378964Y-110503228D01*
X120398189Y-110528282D01*
X120484249Y-110594318D01*
X120523630Y-110624536D01*
X120669709Y-110685044D01*
X120826471Y-110705682D01*
X120852305Y-110702280D01*
X120921337Y-110713044D01*
X120945808Y-110728276D01*
X120947735Y-110729813D01*
X120947738Y-110729816D01*
X121100478Y-110825789D01*
X121270745Y-110885368D01*
X121270750Y-110885369D01*
X121375445Y-110897164D01*
X121436352Y-110904027D01*
X121500766Y-110931093D01*
X121540321Y-110988688D01*
X121542459Y-111058525D01*
X121510150Y-111114928D01*
X121052646Y-111572432D01*
X121050399Y-111574624D01*
X120986946Y-111634942D01*
X120953245Y-111683361D01*
X120947574Y-111690882D01*
X120910302Y-111736592D01*
X120910298Y-111736598D01*
X120896209Y-111763568D01*
X120888082Y-111776983D01*
X120870702Y-111801955D01*
X120847438Y-111856165D01*
X120843398Y-111864672D01*
X120816090Y-111916951D01*
X120816090Y-111916952D01*
X120807720Y-111946201D01*
X120802459Y-111960979D01*
X120790459Y-111988943D01*
X120783093Y-112024787D01*
X120779033Y-112044546D01*
X120778588Y-112046711D01*
X120776342Y-112055860D01*
X120760113Y-112112577D01*
X120758886Y-112128689D01*
X120758326Y-112136051D01*
X120757802Y-112142926D01*
X120755622Y-112158466D01*
X120749500Y-112188258D01*
X120749500Y-112247240D01*
X120749142Y-112256656D01*
X120744662Y-112315474D01*
X120748506Y-112345649D01*
X120749500Y-112361317D01*
X120749500Y-112379699D01*
X120729815Y-112446738D01*
X120677011Y-112492493D01*
X120664507Y-112497403D01*
X120631962Y-112508188D01*
X120580668Y-112525185D01*
X120580663Y-112525187D01*
X120431342Y-112617289D01*
X120307289Y-112741342D01*
X120215187Y-112890663D01*
X120215185Y-112890668D01*
X120197487Y-112944078D01*
X120160001Y-113057203D01*
X120160001Y-113057204D01*
X120160000Y-113057204D01*
X120149500Y-113159983D01*
X120149500Y-113960001D01*
X120149501Y-113960019D01*
X120160000Y-114062796D01*
X120160001Y-114062799D01*
X120206517Y-114203174D01*
X120215186Y-114229334D01*
X120307288Y-114378656D01*
X120431344Y-114502712D01*
X120580666Y-114594814D01*
X120747203Y-114649999D01*
X120849991Y-114660500D01*
X121287288Y-114660499D01*
X121354327Y-114680183D01*
X121400082Y-114732987D01*
X121410508Y-114770615D01*
X121418241Y-114839249D01*
X121477821Y-115009521D01*
X121559539Y-115139574D01*
X121573795Y-115162262D01*
X121701349Y-115289816D01*
X121854089Y-115385789D01*
X122024356Y-115445368D01*
X122062130Y-115449624D01*
X122126542Y-115476689D01*
X122135927Y-115485163D01*
X122641803Y-115991039D01*
X122652497Y-116003233D01*
X122671717Y-116028281D01*
X122699983Y-116049970D01*
X122700003Y-116049987D01*
X122797157Y-116124535D01*
X122797158Y-116124535D01*
X122797159Y-116124536D01*
X122943238Y-116185044D01*
X123021619Y-116195363D01*
X123099999Y-116205682D01*
X123100000Y-116205682D01*
X123131302Y-116201560D01*
X123147487Y-116200500D01*
X124175500Y-116200500D01*
X124242539Y-116220185D01*
X124288294Y-116272989D01*
X124299500Y-116324500D01*
X124299500Y-116900001D01*
X124299501Y-116900019D01*
X124310000Y-117002796D01*
X124310001Y-117002799D01*
X124365185Y-117169331D01*
X124365187Y-117169336D01*
X124457289Y-117318657D01*
X124550951Y-117412319D01*
X124584436Y-117473642D01*
X124579452Y-117543334D01*
X124550951Y-117587681D01*
X124457289Y-117681342D01*
X124443035Y-117704452D01*
X124414942Y-117749999D01*
X124413031Y-117753097D01*
X124361083Y-117799821D01*
X124307492Y-117812000D01*
X122774499Y-117812000D01*
X122707460Y-117792315D01*
X122661705Y-117739511D01*
X122650499Y-117688000D01*
X122650499Y-117102129D01*
X122650498Y-117102123D01*
X122644091Y-117042516D01*
X122593797Y-116907671D01*
X122593793Y-116907664D01*
X122507547Y-116792455D01*
X122507544Y-116792452D01*
X122392335Y-116706206D01*
X122392328Y-116706202D01*
X122257482Y-116655908D01*
X122257483Y-116655908D01*
X122197883Y-116649501D01*
X122197881Y-116649500D01*
X122197873Y-116649500D01*
X122197864Y-116649500D01*
X120402129Y-116649500D01*
X120402123Y-116649501D01*
X120342516Y-116655908D01*
X120207671Y-116706202D01*
X120207664Y-116706206D01*
X120092455Y-116792452D01*
X120092452Y-116792455D01*
X120006206Y-116907664D01*
X120006203Y-116907669D01*
X119957189Y-117039083D01*
X119915317Y-117095016D01*
X119849853Y-117119433D01*
X119781580Y-117104581D01*
X119753326Y-117083430D01*
X119631402Y-116961506D01*
X119631395Y-116961501D01*
X119437834Y-116825967D01*
X119437830Y-116825965D01*
X119414867Y-116815257D01*
X119223663Y-116726097D01*
X119223659Y-116726096D01*
X119223655Y-116726094D01*
X118995413Y-116664938D01*
X118995403Y-116664936D01*
X118760001Y-116644341D01*
X118759999Y-116644341D01*
X118524596Y-116664936D01*
X118524583Y-116664939D01*
X118396241Y-116699327D01*
X118326392Y-116697664D01*
X118276468Y-116667233D01*
X116618199Y-115008964D01*
X116607503Y-114996767D01*
X116588284Y-114971720D01*
X116588285Y-114971720D01*
X116498565Y-114902876D01*
X116457362Y-114846448D01*
X116453207Y-114776702D01*
X116487419Y-114715782D01*
X116549137Y-114683029D01*
X116574051Y-114680500D01*
X118450007Y-114680500D01*
X118450012Y-114680500D01*
X118552800Y-114669999D01*
X118719336Y-114614815D01*
X118868657Y-114522712D01*
X118992712Y-114398657D01*
X119084815Y-114249336D01*
X119139999Y-114082800D01*
X119150500Y-113980012D01*
X119150500Y-109572626D01*
X119170185Y-109505587D01*
X119222989Y-109459832D01*
X119292147Y-109449888D01*
X119355703Y-109478913D01*
G37*
G04 #@! TD.AperFunction*
G04 #@! TA.AperFunction,Conductor*
G36*
X107762310Y-108789438D02*
G01*
X107818243Y-108831310D01*
X107824514Y-108840522D01*
X107831836Y-108852392D01*
X107857288Y-108893656D01*
X107981344Y-109017712D01*
X108130666Y-109109814D01*
X108186262Y-109128236D01*
X108243706Y-109168009D01*
X108270529Y-109232525D01*
X108258214Y-109301300D01*
X108212354Y-109351481D01*
X108081342Y-109432289D01*
X107957289Y-109556342D01*
X107865187Y-109705663D01*
X107865185Y-109705668D01*
X107861130Y-109717906D01*
X107810001Y-109872203D01*
X107810001Y-109872204D01*
X107810000Y-109872204D01*
X107799500Y-109974983D01*
X107799500Y-111025001D01*
X107799501Y-111025019D01*
X107810000Y-111127796D01*
X107810001Y-111127799D01*
X107843137Y-111227795D01*
X107865186Y-111294334D01*
X107957288Y-111443656D01*
X107957289Y-111443657D01*
X107958344Y-111445367D01*
X107976784Y-111512760D01*
X107955861Y-111579423D01*
X107940486Y-111598145D01*
X107414358Y-112124272D01*
X107400729Y-112136051D01*
X107381469Y-112150390D01*
X107349632Y-112188331D01*
X107342346Y-112196284D01*
X107338407Y-112200224D01*
X107319176Y-112224545D01*
X107316902Y-112227337D01*
X107268694Y-112284790D01*
X107264729Y-112290819D01*
X107264682Y-112290788D01*
X107260630Y-112297147D01*
X107260679Y-112297177D01*
X107256889Y-112303321D01*
X107225192Y-112371294D01*
X107223623Y-112374536D01*
X107189957Y-112441572D01*
X107187488Y-112448357D01*
X107187432Y-112448336D01*
X107184960Y-112455450D01*
X107185015Y-112455469D01*
X107182743Y-112462325D01*
X107167573Y-112535788D01*
X107166793Y-112539304D01*
X107149499Y-112612279D01*
X107148661Y-112619454D01*
X107148601Y-112619447D01*
X107147835Y-112626945D01*
X107147895Y-112626951D01*
X107147265Y-112634140D01*
X107149448Y-112709128D01*
X107149500Y-112712735D01*
X107149500Y-112787529D01*
X107129815Y-112854568D01*
X107077011Y-112900323D01*
X107059613Y-112906744D01*
X107026956Y-112916088D01*
X106941683Y-112960631D01*
X106846593Y-113010302D01*
X106846591Y-113010303D01*
X106846590Y-113010304D01*
X106688890Y-113138890D01*
X106560399Y-113296474D01*
X106560302Y-113296593D01*
X106513196Y-113386772D01*
X106466089Y-113476954D01*
X106410114Y-113672583D01*
X106410113Y-113672586D01*
X106399500Y-113791966D01*
X106399500Y-114375500D01*
X106379815Y-114442539D01*
X106327011Y-114488294D01*
X106275500Y-114499500D01*
X103092942Y-114499500D01*
X103025903Y-114479815D01*
X102981854Y-114430594D01*
X102967030Y-114400704D01*
X102847722Y-114252278D01*
X102847721Y-114252277D01*
X102778514Y-114196647D01*
X102738595Y-114139304D01*
X102736015Y-114069482D01*
X102771594Y-114009349D01*
X102778514Y-114003353D01*
X102787909Y-113995800D01*
X102847722Y-113947722D01*
X102967030Y-113799296D01*
X103051641Y-113628693D01*
X103097600Y-113443889D01*
X103100500Y-113401123D01*
X103100499Y-112498878D01*
X103097600Y-112456111D01*
X103051641Y-112271307D01*
X103042043Y-112251955D01*
X102967032Y-112100707D01*
X102967030Y-112100704D01*
X102847722Y-111952278D01*
X102847721Y-111952277D01*
X102699295Y-111832969D01*
X102699292Y-111832967D01*
X102528697Y-111748360D01*
X102343892Y-111702400D01*
X102318229Y-111700660D01*
X102301123Y-111699500D01*
X102301121Y-111699500D01*
X102118761Y-111699500D01*
X102051722Y-111679815D01*
X102005967Y-111627011D01*
X101996023Y-111557853D01*
X102013222Y-111510403D01*
X102019917Y-111499549D01*
X102084814Y-111394334D01*
X102139999Y-111227797D01*
X102150500Y-111125009D01*
X102150499Y-110074992D01*
X102139999Y-109972203D01*
X102129774Y-109941346D01*
X102127371Y-109871517D01*
X102163102Y-109811475D01*
X102225622Y-109780282D01*
X102290812Y-109786158D01*
X102392517Y-109824091D01*
X102392516Y-109824091D01*
X102399444Y-109824835D01*
X102452127Y-109830500D01*
X104888263Y-109830499D01*
X104955302Y-109850184D01*
X105001057Y-109902987D01*
X105011203Y-109970681D01*
X105009318Y-109985001D01*
X105013439Y-110016301D01*
X105014500Y-110032487D01*
X105014500Y-111830087D01*
X104994815Y-111897126D01*
X104987450Y-111907396D01*
X104985186Y-111910234D01*
X104889211Y-112062976D01*
X104829631Y-112233245D01*
X104829630Y-112233250D01*
X104809435Y-112412496D01*
X104809435Y-112412503D01*
X104829630Y-112591749D01*
X104829631Y-112591754D01*
X104889211Y-112762023D01*
X104970043Y-112890666D01*
X104985184Y-112914762D01*
X105112738Y-113042316D01*
X105265478Y-113138289D01*
X105327476Y-113159983D01*
X105435745Y-113197868D01*
X105435750Y-113197869D01*
X105614996Y-113218065D01*
X105615000Y-113218065D01*
X105615004Y-113218065D01*
X105794249Y-113197869D01*
X105794252Y-113197868D01*
X105794255Y-113197868D01*
X105964522Y-113138289D01*
X106117262Y-113042316D01*
X106244816Y-112914762D01*
X106340789Y-112762022D01*
X106400368Y-112591755D01*
X106402571Y-112572203D01*
X106420565Y-112412503D01*
X106420565Y-112412496D01*
X106400369Y-112233250D01*
X106400368Y-112233245D01*
X106365213Y-112132779D01*
X106340789Y-112062978D01*
X106336316Y-112055860D01*
X106281950Y-111969336D01*
X106244816Y-111910238D01*
X106244814Y-111910236D01*
X106244813Y-111910234D01*
X106242550Y-111907396D01*
X106241659Y-111905215D01*
X106241111Y-111904342D01*
X106241264Y-111904245D01*
X106216144Y-111842709D01*
X106215500Y-111830087D01*
X106215500Y-110285097D01*
X106235185Y-110218058D01*
X106251819Y-110197416D01*
X106892893Y-109556342D01*
X107631297Y-108817937D01*
X107692618Y-108784454D01*
X107762310Y-108789438D01*
G37*
G04 #@! TD.AperFunction*
G04 #@! TA.AperFunction,Conductor*
G36*
X110204809Y-101520185D02*
G01*
X110225451Y-101536819D01*
X110713181Y-102024548D01*
X110746666Y-102085871D01*
X110749500Y-102112229D01*
X110749500Y-103522600D01*
X110737952Y-103561926D01*
X110748019Y-103583294D01*
X110749500Y-103602399D01*
X110749500Y-107700028D01*
X110742538Y-107740993D01*
X110741538Y-107743850D01*
X110700811Y-107800623D01*
X110635856Y-107826364D01*
X110567295Y-107812902D01*
X110516897Y-107764510D01*
X110500500Y-107702885D01*
X110500500Y-103609994D01*
X110501561Y-103593807D01*
X110502561Y-103586212D01*
X110511690Y-103565575D01*
X110506523Y-103557535D01*
X110502561Y-103538786D01*
X110499382Y-103514638D01*
X110485044Y-103405738D01*
X110424536Y-103259659D01*
X110384350Y-103207288D01*
X110328282Y-103134218D01*
X110328281Y-103134217D01*
X110303228Y-103114993D01*
X110291034Y-103104299D01*
X110136654Y-102949919D01*
X110103169Y-102888596D01*
X110100749Y-102859005D01*
X110100500Y-102859005D01*
X110100500Y-102855966D01*
X110100496Y-102855918D01*
X110100500Y-102855839D01*
X110100500Y-102269157D01*
X110100499Y-102269144D01*
X110090087Y-102167225D01*
X110035362Y-102002075D01*
X110035358Y-102002069D01*
X110035357Y-102002066D01*
X109944028Y-101854000D01*
X109944025Y-101853996D01*
X109821004Y-101730975D01*
X109821003Y-101730974D01*
X109819487Y-101730038D01*
X109818666Y-101729126D01*
X109815336Y-101726493D01*
X109815785Y-101725924D01*
X109772763Y-101678093D01*
X109761539Y-101609130D01*
X109789381Y-101545048D01*
X109847449Y-101506191D01*
X109884583Y-101500500D01*
X110137770Y-101500500D01*
X110204809Y-101520185D01*
G37*
G04 #@! TD.AperFunction*
G04 #@! TA.AperFunction,Conductor*
G36*
X124849802Y-100520185D02*
G01*
X124895557Y-100572989D01*
X124905501Y-100642147D01*
X124876476Y-100705703D01*
X124826096Y-100740682D01*
X124757671Y-100766202D01*
X124757664Y-100766206D01*
X124642455Y-100852452D01*
X124642452Y-100852455D01*
X124556206Y-100967664D01*
X124556202Y-100967671D01*
X124505908Y-101102517D01*
X124499501Y-101162116D01*
X124499501Y-101162123D01*
X124499500Y-101162135D01*
X124499500Y-102994217D01*
X124479815Y-103061256D01*
X124463181Y-103081898D01*
X122649397Y-104895681D01*
X122588074Y-104929166D01*
X122561716Y-104932000D01*
X120799998Y-104932000D01*
X120799981Y-104932001D01*
X120697203Y-104942500D01*
X120697200Y-104942501D01*
X120530668Y-104997685D01*
X120530663Y-104997687D01*
X120381342Y-105089789D01*
X120287181Y-105183951D01*
X120225858Y-105217436D01*
X120156166Y-105212452D01*
X120100233Y-105170580D01*
X120075816Y-105105116D01*
X120075500Y-105096270D01*
X120075500Y-103997596D01*
X120095185Y-103930557D01*
X120111814Y-103909920D01*
X121412416Y-102609317D01*
X121473739Y-102575833D01*
X121500097Y-102572999D01*
X122600002Y-102572999D01*
X122600008Y-102572999D01*
X122702797Y-102562499D01*
X122869334Y-102507314D01*
X123018656Y-102415212D01*
X123142712Y-102291156D01*
X123234814Y-102141834D01*
X123289999Y-101975297D01*
X123300500Y-101872509D01*
X123300499Y-101072492D01*
X123299506Y-101062775D01*
X123289999Y-100969703D01*
X123289998Y-100969700D01*
X123275396Y-100925635D01*
X123234814Y-100803166D01*
X123164763Y-100689595D01*
X123146324Y-100622204D01*
X123167247Y-100555541D01*
X123220889Y-100510771D01*
X123270303Y-100500500D01*
X124782763Y-100500500D01*
X124849802Y-100520185D01*
G37*
G04 #@! TD.AperFunction*
G04 #@! TA.AperFunction,Conductor*
G36*
X114143039Y-107920185D02*
G01*
X114188794Y-107972989D01*
X114200000Y-108024500D01*
X114200000Y-109076000D01*
X114180315Y-109143039D01*
X114127511Y-109188794D01*
X114076000Y-109200000D01*
X112924000Y-109200000D01*
X112856961Y-109180315D01*
X112811206Y-109127511D01*
X112800000Y-109076000D01*
X112800000Y-108024500D01*
X112819685Y-107957461D01*
X112872489Y-107911706D01*
X112924000Y-107900500D01*
X114076000Y-107900500D01*
X114143039Y-107920185D01*
G37*
G04 #@! TD.AperFunction*
G04 #@! TA.AperFunction,Conductor*
G36*
X112800000Y-108800000D02*
G01*
X112424000Y-108800000D01*
X112356961Y-108780315D01*
X112311206Y-108727511D01*
X112300000Y-108676000D01*
X112300000Y-108056352D01*
X112300780Y-108042468D01*
X112304369Y-108010616D01*
X112331436Y-107946202D01*
X112389031Y-107906647D01*
X112427589Y-107900500D01*
X112800000Y-107900500D01*
X112800000Y-108800000D01*
G37*
G04 #@! TD.AperFunction*
G04 #@! TA.AperFunction,Conductor*
G36*
X115843039Y-107920185D02*
G01*
X115888794Y-107972989D01*
X115900000Y-108024500D01*
X115900000Y-108676000D01*
X115880315Y-108743039D01*
X115827511Y-108788794D01*
X115776000Y-108800000D01*
X114200000Y-108800000D01*
X114200000Y-107900500D01*
X115776000Y-107900500D01*
X115843039Y-107920185D01*
G37*
G04 #@! TD.AperFunction*
M02*
